<svg width="24" height="24" viewBox="0 0 24 24" fill="none" xmlns="http://www.w3.org/2000/svg">
<mask id="mask0_6_171" style="mask-type:alpha" maskUnits="userSpaceOnUse" x="0" y="0" width="24" height="24">
<circle cx="12" cy="12" r="11.7188" fill="#D9D9D9"/>
</mask>
<g mask="url(#mask0_6_171)">
<path fill-rule="evenodd" clip-rule="evenodd" d="M0.532527 19.5926C0.359718 19.0399 0.266541 18.452 0.266541 17.8425V16.15H0.280555V7.81754H0.294569V6.12502C0.294569 3.29834 2.2983 0.936521 4.96014 0.386971L4.99609 0.379659C5.368 0.305277 5.75261 0.266281 6.14627 0.266281H17.8497C20.461 0.266328 22.675 1.98238 23.4272 4.3486L23.4355 4.3749C23.6083 4.92763 23.7015 5.51552 23.7015 6.12502V7.81754H23.6875V16.15H23.6735V17.8425C23.6735 21.0759 21.0516 23.701 17.8218 23.7012H6.11829C5.72182 23.7012 5.33453 23.6617 4.96014 23.5863L4.92878 23.5799C2.8516 23.1498 1.17563 21.6158 0.540823 19.6189L0.532527 19.5926Z" fill="#00A850"/>
<path fill-rule="evenodd" clip-rule="evenodd" d="M16.8787 15.0833C19.5345 13.3876 21.7077 11.9917 21.7077 11.9818C21.7077 11.9433 12.0445 5.79736 11.984 5.79736C11.9238 5.79736 2.25763 11.9433 2.25763 11.9818C2.25763 12.024 11.9326 18.1799 11.9884 18.1733C12.0221 18.1696 14.2228 16.7789 16.8787 15.0833ZM12.0034 7.85347C14.2823 7.85347 16.1325 9.70368 16.1325 11.9826C16.1325 14.2615 14.2823 16.1117 12.0034 16.1117C9.72451 16.1117 7.87431 14.2615 7.87431 11.9826C7.87431 9.70368 9.72451 7.85347 12.0034 7.85347Z" fill="#FFE42C"/>
<path fill-rule="evenodd" clip-rule="evenodd" d="M15.9479 13.2066C15.4256 14.8887 13.8561 16.1117 12.0034 16.1117C9.72447 16.1117 7.87427 14.2615 7.87427 11.9826C7.87427 11.6357 7.91721 11.2988 7.99796 10.9766C8.00383 10.9696 8.01007 10.9644 8.01631 10.9611C8.24534 10.8385 10.0574 10.7839 10.7731 10.8778C12.5756 11.1146 14.2144 11.8123 15.615 12.9387L15.9479 13.2066ZM11.992 15.2407C11.9975 15.2407 12.0056 15.2455 12.0103 15.2506C12.0217 15.2646 12.0247 15.2591 12.0169 15.2389C12.0114 15.2242 12.0129 15.2202 12.0283 15.2088L12.0459 15.1956L12.025 15.1952C12.0078 15.1952 12.003 15.1919 11.9997 15.1787C11.9975 15.1699 11.9935 15.1625 11.9905 15.1625C11.9876 15.1625 11.9836 15.1699 11.9813 15.1787C11.978 15.1919 11.9729 15.1952 11.956 15.1952L11.9347 15.1956L11.9527 15.2088C11.9678 15.2198 11.9692 15.2242 11.9641 15.2382C11.9553 15.2616 11.956 15.2638 11.9696 15.2517C11.9762 15.2459 11.9861 15.2407 11.992 15.2407ZM14.0778 15.1464C14.0947 15.1589 14.1101 15.1688 14.112 15.1688C14.1142 15.1688 14.1101 15.1523 14.1032 15.1321C14.0962 15.1115 14.0903 15.0943 14.0903 15.0939C14.0903 15.0932 14.105 15.0825 14.123 15.0704L14.156 15.048L14.1153 15.0447L14.0749 15.0414L14.062 15.0025L14.0492 14.9636L14.0353 15.0025L14.0217 15.0414L13.9802 15.0433L13.9387 15.0455L13.967 15.0656C13.9828 15.0767 13.9978 15.0877 14.0004 15.0902C14.0033 15.0924 13.9997 15.1119 13.9923 15.1328C13.985 15.1537 13.9791 15.1721 13.9791 15.1736C13.9791 15.175 13.9945 15.1644 14.0132 15.1501L14.0474 15.124L14.0778 15.1464ZM13.2553 14.7181L13.2395 14.6678L13.2237 14.6179L13.2076 14.6678L13.1918 14.7173L13.139 14.7192L13.0861 14.7214L13.1269 14.7507C13.1492 14.7669 13.1676 14.7834 13.168 14.7871C13.168 14.7911 13.1621 14.8113 13.1547 14.8322C13.1478 14.8531 13.1419 14.873 13.1419 14.8763C13.1419 14.8796 13.1551 14.8722 13.1713 14.8605C13.1878 14.8487 13.2065 14.8352 13.2131 14.8304C13.2234 14.8234 13.2304 14.826 13.2652 14.8517C13.2872 14.8682 13.3063 14.8814 13.3078 14.8814C13.3089 14.8814 13.3027 14.859 13.2939 14.8315C13.2803 14.7904 13.2792 14.7805 13.2865 14.7764C13.2916 14.7735 13.3115 14.7592 13.3309 14.7445L13.3665 14.7181H13.2553ZM14.0551 14.7243C14.0576 14.7243 14.0756 14.7364 14.0951 14.7511C14.1145 14.7658 14.1318 14.7768 14.1336 14.775C14.1351 14.7735 14.1303 14.7533 14.1233 14.7302C14.116 14.7074 14.1101 14.6865 14.1101 14.6839C14.1101 14.6817 14.1281 14.6667 14.1501 14.6513L14.1905 14.623L14.1384 14.6212L14.0863 14.6193L14.0698 14.5691L14.0529 14.5184L14.0375 14.5691L14.0217 14.6193L13.9703 14.6212L13.9189 14.623L13.9589 14.652C13.9809 14.6682 13.9989 14.6828 13.9989 14.6854C13.9989 14.6876 13.9916 14.7107 13.9828 14.7368L13.9666 14.7841L14.0085 14.7544C14.0312 14.7379 14.0521 14.7243 14.0551 14.7243ZM13.5768 14.4498C13.5794 14.4498 13.5959 14.4604 13.6135 14.4733C13.6312 14.4861 13.6455 14.4956 13.6455 14.4942C13.6455 14.4923 13.6396 14.474 13.6323 14.4531C13.6253 14.4322 13.6201 14.4145 13.6209 14.4142C13.622 14.4134 13.637 14.4028 13.6546 14.3907L13.6862 14.3683L13.644 14.3665L13.6014 14.3642L13.5897 14.3239L13.5779 14.2831L13.5647 14.3239L13.5515 14.3642L13.5086 14.3665L13.4656 14.3683L13.4884 14.383C13.5376 14.4145 13.5357 14.4109 13.521 14.4534C13.5141 14.474 13.5082 14.4923 13.5082 14.4942C13.5082 14.4956 13.5225 14.4861 13.5401 14.4733C13.5577 14.4604 13.5743 14.4498 13.5768 14.4498ZM14.494 14.4076C14.5106 14.42 14.5256 14.4292 14.5271 14.4274C14.5285 14.4259 14.5252 14.4105 14.5194 14.3936C14.5139 14.3764 14.5091 14.3602 14.5091 14.3573C14.5091 14.3543 14.5245 14.3408 14.5432 14.3275L14.5774 14.303L14.5318 14.2997L14.486 14.2963L14.4764 14.2619C14.4709 14.2431 14.465 14.2277 14.4632 14.2277C14.4614 14.2277 14.4555 14.2431 14.45 14.2619L14.4405 14.2963L14.3946 14.2997L14.3491 14.303L14.3832 14.3275C14.4019 14.3408 14.4173 14.3543 14.4173 14.3576C14.4173 14.3606 14.4129 14.3756 14.4074 14.391C14.3931 14.4325 14.3949 14.4336 14.4305 14.4079L14.4636 14.3844L14.494 14.4076ZM12.9294 14.3683C12.947 14.3804 12.9621 14.3899 12.9632 14.3885C12.9643 14.3874 12.961 14.3742 12.9554 14.3587C12.9411 14.3176 12.943 14.3114 12.9753 14.2897C12.991 14.2791 13.0043 14.2681 13.0043 14.2655C13.0043 14.263 12.9863 14.26 12.9643 14.2589L12.9239 14.2571L12.9132 14.2266C12.9077 14.2097 12.9015 14.1943 12.8993 14.1921C12.8971 14.1903 12.8905 14.205 12.8842 14.2244L12.8729 14.2604L12.8292 14.2607C12.7804 14.2607 12.78 14.2585 12.8343 14.3L12.856 14.3165L12.8453 14.3485C12.8391 14.3661 12.8343 14.383 12.8343 14.3863C12.8343 14.3896 12.8486 14.3819 12.8659 14.369L12.8978 14.3455L12.9294 14.3683ZM14.0679 14.329C14.0852 14.3411 14.1006 14.3507 14.1017 14.3496C14.1028 14.3481 14.0991 14.3349 14.0936 14.3195C14.0793 14.2784 14.0811 14.2721 14.1134 14.2505C14.1296 14.2398 14.1428 14.2288 14.1428 14.2262C14.1428 14.2237 14.1244 14.2207 14.1024 14.2196L14.062 14.2178L14.0518 14.1873C14.0459 14.1705 14.0397 14.155 14.0375 14.1532C14.0356 14.151 14.0286 14.1657 14.0224 14.1851L14.011 14.2211L13.9674 14.2215C13.9185 14.2215 13.9182 14.2193 13.9725 14.2607L13.9941 14.2776L13.9835 14.3092C13.9773 14.3268 13.9725 14.3437 13.9725 14.347C13.9725 14.3503 13.9868 14.3426 14.0044 14.3298L14.036 14.3063L14.0679 14.329ZM10.2919 14.278L10.3363 14.2457L10.3539 14.2585C10.4053 14.2963 10.4402 14.3202 10.4402 14.3176C10.4402 14.3162 10.4314 14.289 10.4204 14.2571C10.4097 14.2251 10.4009 14.1987 10.4009 14.198C10.4009 14.1976 10.4233 14.1811 10.4508 14.1617L10.5007 14.1264L10.438 14.1246L10.3749 14.1227L10.3558 14.0626C10.3348 13.9961 10.3363 13.9958 10.3128 14.0732L10.2985 14.1198L10.2343 14.1231L10.1704 14.1264L10.2203 14.1609C10.2475 14.18 10.2699 14.198 10.2699 14.2006C10.2699 14.2035 10.2614 14.2314 10.2508 14.2626C10.2402 14.2938 10.235 14.3173 10.2394 14.3147C10.2435 14.3121 10.2673 14.2956 10.2919 14.278ZM14.8255 14.0838L14.8097 14.0339L14.7939 13.984L14.7778 14.0339L14.7616 14.0838H14.7106C14.6823 14.0838 14.6596 14.086 14.6596 14.089C14.6596 14.0915 14.6772 14.1055 14.6988 14.1198C14.7201 14.1341 14.7378 14.1492 14.7378 14.1532C14.7378 14.1569 14.7322 14.1774 14.7249 14.1984C14.7176 14.2193 14.7117 14.2387 14.7117 14.242C14.7117 14.2453 14.7304 14.2347 14.7532 14.2182L14.795 14.1888L14.8335 14.2178C14.8548 14.234 14.8739 14.2472 14.8758 14.2472C14.878 14.2472 14.8725 14.2259 14.864 14.1998L14.8486 14.1525L14.8703 14.1341C14.882 14.1238 14.8996 14.111 14.9095 14.1051C14.9194 14.0989 14.9275 14.0919 14.9275 14.089C14.9275 14.086 14.9048 14.0838 14.8765 14.0838H14.8255ZM11.938 13.9466C11.9623 13.9286 11.9858 13.9139 11.9905 13.9139C11.9949 13.9139 12.0184 13.9286 12.0426 13.9466C12.0672 13.9646 12.0885 13.9792 12.0907 13.9792C12.0926 13.9792 12.0856 13.9539 12.0749 13.9227C12.0647 13.8911 12.0559 13.8651 12.0559 13.864C12.0559 13.8629 12.0786 13.8453 12.1065 13.8243L12.1572 13.7865L12.0918 13.7832L12.0265 13.7799L12.0107 13.726C12.0019 13.6963 11.9927 13.672 11.9905 13.672C11.988 13.672 11.9788 13.6963 11.9703 13.726L11.9542 13.7799L11.8889 13.7832L11.8235 13.7865L11.8742 13.8243C11.9021 13.8453 11.9252 13.8629 11.9252 13.864C11.9252 13.8651 11.9164 13.8911 11.9057 13.9227C11.8951 13.9539 11.8881 13.9792 11.8903 13.9792C11.8925 13.9792 11.9138 13.9646 11.938 13.9466ZM15.0787 13.7572L15.0626 13.7065C15.0453 13.6518 15.0457 13.6518 15.0266 13.7157L15.0152 13.7539L14.9062 13.7575L14.947 13.7862C14.9693 13.802 14.9892 13.8163 14.9903 13.8177C14.9917 13.8192 14.9855 13.842 14.9767 13.8684C14.9679 13.8948 14.9602 13.9172 14.9602 13.9183C14.9602 13.9198 14.9785 13.9073 15.0009 13.8911C15.0233 13.875 15.0442 13.8618 15.0472 13.8618C15.0505 13.8618 15.0703 13.875 15.0916 13.8915C15.1129 13.9077 15.1305 13.9187 15.1305 13.9154C15.1305 13.9121 15.1246 13.8922 15.1173 13.8713C15.1103 13.8504 15.1044 13.8299 15.1044 13.8254C15.1044 13.8207 15.1224 13.8038 15.1448 13.7873L15.1852 13.7572H15.0787ZM9.67088 13.8889C9.67272 13.886 9.68593 13.8754 9.69988 13.8655L9.72594 13.8478L9.75897 13.8717C9.77732 13.8849 9.79237 13.8945 9.79237 13.8926C9.79237 13.8911 9.78687 13.8732 9.7799 13.853L9.76705 13.8163L9.80081 13.7917L9.83495 13.7667L9.79201 13.7649L9.74906 13.7631L9.74062 13.7308C9.73622 13.7128 9.73034 13.697 9.72741 13.6952C9.72484 13.6937 9.7175 13.7084 9.71126 13.7278L9.70025 13.7634L9.6562 13.7638L9.61253 13.7642L9.63198 13.7785C9.64299 13.7865 9.65841 13.799 9.66685 13.806L9.6819 13.8192L9.66868 13.8566C9.66171 13.8776 9.6584 13.8945 9.66171 13.8945C9.66464 13.8945 9.66905 13.8919 9.67088 13.8889ZM14.8284 13.5414C14.853 13.5234 14.8754 13.5087 14.8783 13.5087C14.8813 13.5087 14.904 13.5238 14.9286 13.5421C14.9536 13.5605 14.9752 13.5748 14.9763 13.5733C14.9778 13.5718 14.9708 13.5454 14.9609 13.5142L14.9426 13.4581L14.9917 13.4228L15.0409 13.3879L14.9793 13.3846L14.918 13.3813L14.8978 13.3226L14.8772 13.2643L14.8578 13.3226L14.8383 13.3813L14.7781 13.3846L14.7179 13.3879L14.7638 13.4221C14.7891 13.4412 14.8101 13.4603 14.8101 13.465C14.8101 13.4698 14.8024 13.4955 14.7935 13.5219C14.7844 13.5483 14.7774 13.5707 14.7774 13.5718C14.7774 13.5773 14.7866 13.5718 14.8284 13.5414ZM15.4806 13.5447C15.4982 13.5568 15.5133 13.5663 15.5144 13.5652C15.5155 13.5641 15.5122 13.5505 15.5067 13.5351C15.4924 13.494 15.4942 13.4878 15.5265 13.4661C15.5423 13.4555 15.5555 13.4445 15.5555 13.4419C15.5555 13.4393 15.5375 13.4364 15.5155 13.4357L15.4751 13.4335L15.4645 13.403C15.459 13.3861 15.4527 13.3707 15.4505 13.3685C15.4483 13.3667 15.4417 13.3813 15.4355 13.4008L15.4241 13.4368L15.3804 13.4371C15.3316 13.4371 15.3312 13.4349 15.3856 13.4764L15.4072 13.4933L15.3966 13.5248C15.3903 13.5425 15.3856 13.5594 15.3856 13.5627C15.3856 13.566 15.3999 13.5583 15.4171 13.5454L15.4491 13.5219L15.4806 13.5447ZM9.87973 13.3454L9.86431 13.2955L9.84853 13.2452L9.83238 13.2951L9.81623 13.3446L9.76338 13.3468L9.71053 13.3487L9.75127 13.378C9.77366 13.3942 9.79201 13.4107 9.79237 13.4144C9.79237 13.4184 9.7865 13.4386 9.77953 13.4595C9.77219 13.4804 9.76631 13.5003 9.76631 13.5036C9.76631 13.5069 9.77953 13.4999 9.79604 13.4878C9.81219 13.476 9.83091 13.4625 9.83752 13.4581C9.84779 13.4507 9.85477 13.4533 9.88964 13.479C9.91166 13.4955 9.93074 13.5087 9.93221 13.5087C9.93331 13.5087 9.92707 13.4863 9.91826 13.4588C9.90505 13.4177 9.90358 13.4078 9.91092 13.4037C9.91606 13.4008 9.93588 13.3865 9.9557 13.3718L9.99094 13.3454H9.87973ZM8.50152 13.2558L8.51731 13.3057L8.62484 13.3094L8.58374 13.3384C8.56135 13.3545 8.543 13.3707 8.543 13.3751C8.543 13.3791 8.54887 13.3997 8.55621 13.4206C8.56318 13.4412 8.56906 13.461 8.56906 13.4643C8.56906 13.4676 8.54997 13.4566 8.52685 13.4397L8.48427 13.4096L8.44537 13.4397C8.42408 13.4558 8.405 13.4694 8.40316 13.4694C8.40133 13.4694 8.40683 13.4485 8.41564 13.4228C8.43399 13.3692 8.43472 13.3711 8.3815 13.3344L8.34517 13.3094L8.39949 13.3061L8.45381 13.3028L8.46959 13.2543L8.48574 13.2063L8.50152 13.2558ZM11.7549 13.3619C11.7688 13.345 11.7868 13.3435 11.8074 13.3582C11.8283 13.3733 11.8309 13.3696 11.8199 13.3406C11.8136 13.3237 11.8147 13.3208 11.8378 13.3013L11.8628 13.28H11.8323C11.8022 13.28 11.8015 13.2793 11.7923 13.2521L11.7828 13.2243L11.7743 13.2521C11.7663 13.2793 11.7652 13.28 11.7376 13.28C11.7039 13.28 11.7017 13.2859 11.7296 13.3021C11.7501 13.3142 11.752 13.3252 11.7384 13.3601C11.7329 13.374 11.7439 13.3751 11.7549 13.3619ZM15.9614 13.1615L15.96 13.1659L15.9647 13.1501L15.9614 13.1615ZM15.9688 13.1369L15.9666 13.1442L15.971 13.1288L15.9688 13.1369ZM12.435 12.9791L12.4493 12.9299C12.457 12.9027 12.4658 12.8829 12.4684 12.8859C12.471 12.8888 12.479 12.9101 12.4864 12.9336L12.4992 12.9761L12.5506 12.9791L12.602 12.9824L12.5613 13.0114C12.5389 13.0272 12.5205 13.0404 12.5205 13.0411C12.5205 13.0418 12.5275 13.0639 12.5367 13.0903L12.5513 13.1398C12.5506 13.1406 12.5352 13.1299 12.5172 13.116C12.4992 13.102 12.4794 13.0888 12.4732 13.0866C12.4662 13.0844 12.4482 13.0932 12.4251 13.1101C12.4049 13.1252 12.3873 13.1362 12.3858 13.1347C12.3843 13.1329 12.3888 13.1145 12.3961 13.0936C12.4031 13.0727 12.4089 13.0517 12.4089 13.047C12.4089 13.0418 12.391 13.025 12.3693 13.0084L12.3293 12.9791H12.435ZM15.9757 13.1127L15.9728 13.1226L15.9772 13.1068L15.9757 13.1127ZM9.02968 12.927L9.01023 12.8675L8.99078 12.8077L8.97169 12.8671L8.95297 12.9266L8.88838 12.9284L8.82341 12.9303L8.87296 12.9655C8.90012 12.9849 8.92251 13.004 8.92214 13.0081C8.92214 13.0121 8.9148 13.0385 8.90599 13.0675C8.89718 13.0962 8.88984 13.1207 8.88984 13.1218C8.88984 13.123 8.90746 13.1112 8.92912 13.0958C8.95114 13.08 8.97389 13.0639 8.98013 13.0598C8.98931 13.0528 8.99885 13.0573 9.03959 13.0874C9.06675 13.1068 9.08951 13.1218 9.09061 13.1207C9.09171 13.1196 9.084 13.0932 9.07336 13.0624L9.05427 13.0059L9.10749 12.9666L9.16035 12.927H9.02968ZM11.5758 13.0708C11.578 13.0708 11.5941 13.0815 11.6117 13.0943C11.6294 13.1072 11.6437 13.1163 11.6437 13.1149C11.6437 13.1134 11.6378 13.0954 11.6308 13.0749L11.6184 13.0378L11.651 13.0136L11.6837 12.989L11.6418 12.9872L11.6 12.9853L11.5879 12.9449L11.5754 12.9049L11.5626 12.9449L11.5497 12.9853L11.5075 12.9872L11.4657 12.989L11.4972 13.0114C11.5148 13.0239 11.5299 13.0341 11.531 13.0349C11.5328 13.036 11.5174 13.0863 11.509 13.1068C11.5049 13.1167 11.5115 13.1141 11.5376 13.0951C11.5567 13.0818 11.5736 13.0708 11.5758 13.0708ZM15.9959 13.0389L15.9945 13.0448L15.9989 13.0272L15.9959 13.0389ZM16.0022 13.0139L16 13.0228L16.0044 13.0059L16.0022 13.0139ZM16.0268 12.9148L16.0249 12.9218L16.0293 12.9035L16.0268 12.9148ZM16.0323 12.8895L16.0301 12.9002L16.0341 12.8814L16.0323 12.8895ZM9.41837 12.782L9.44149 12.7996L9.43709 12.7831C9.43452 12.7743 9.43085 12.7607 9.42901 12.753C9.42608 12.742 9.43048 12.7357 9.4503 12.7236L9.47526 12.7078L9.44296 12.7049C9.41213 12.7016 9.41066 12.7005 9.40295 12.6752C9.39525 12.6487 9.39451 12.6491 9.38057 12.6869C9.37506 12.7023 9.37065 12.7049 9.34606 12.7049L9.31817 12.7053L9.34019 12.724C9.36258 12.7431 9.36368 12.7504 9.34973 12.7867C9.34643 12.7959 9.35083 12.7945 9.37029 12.7812L9.39524 12.7644L9.41837 12.782ZM16.0536 12.789L16.0517 12.7974L16.0558 12.7779L16.0536 12.789ZM12.0331 12.7405C12.0562 12.757 12.0757 12.7695 12.0757 12.7684C12.0757 12.7669 12.0683 12.7445 12.0595 12.7188L12.0434 12.6715L12.0863 12.6407L12.1293 12.6098L12.0764 12.608L12.0236 12.6062L12.0092 12.5607C12.0012 12.5357 11.9927 12.5151 11.9905 12.5151C11.9883 12.5151 11.9799 12.5357 11.9718 12.5607L11.9571 12.6062L11.9043 12.608L11.8518 12.6098L11.8947 12.6407L11.9377 12.6715L11.9215 12.7188C11.9127 12.7445 11.9054 12.7669 11.9054 12.7684C11.9054 12.7695 11.9245 12.757 11.9479 12.7405L11.9905 12.71L12.0331 12.7405ZM16.0767 12.6623L16.0748 12.6722L16.0785 12.6517L16.0767 12.6623ZM8.23102 10.3027C8.87479 8.85988 10.3224 7.85349 12.0034 7.85349C14.2823 7.85349 16.1325 9.70369 16.1325 11.9826C16.1325 12.1826 16.1182 12.3793 16.0906 12.5717V12.572L16.0881 12.5893L16.087 12.5959L16.0866 12.5981L16.0862 12.6014L16.0851 12.6098L16.0833 12.6209L16.0826 12.6245V12.6267C16.0811 12.6344 16.08 12.6425 16.0785 12.6506L16.0826 12.6267L16.0833 12.6209L16.0862 12.6014L16.087 12.5959L16.0906 12.572V12.5717L16.0943 12.5452L15.7012 12.2494C14.3138 11.2052 12.7617 10.5655 10.9775 10.3019C10.4714 10.2271 8.85057 10.2109 8.43913 10.277C8.34811 10.2913 8.26919 10.3008 8.23102 10.3027ZM10.4534 12.1165L10.4387 12.0674C10.4303 12.0406 10.4222 12.0186 10.4204 12.0186C10.4185 12.0186 10.4105 12.0406 10.4024 12.0674L10.3873 12.1165H10.2802L10.3668 12.1767L10.3517 12.2248C10.3437 12.2516 10.3385 12.2733 10.3403 12.2733C10.3426 12.2733 10.3598 12.2615 10.3789 12.2472C10.3976 12.2329 10.4167 12.2212 10.4204 12.2212C10.4244 12.2212 10.4431 12.2329 10.4622 12.2472C10.4813 12.2615 10.4985 12.2733 10.5004 12.2733C10.5026 12.2733 10.4974 12.2516 10.489 12.2248L10.4743 12.1767L10.5176 12.1466L10.5606 12.1165H10.4534ZM13.168 11.8383C13.1606 11.8174 13.1569 11.7983 13.1595 11.7958C13.1625 11.7932 13.1775 11.7822 13.1929 11.7712L13.2215 11.751L13.1801 11.7492L13.1386 11.7473L13.1246 11.7084L13.1111 11.6695L13.0982 11.7084L13.085 11.7473L13.0446 11.7503L13.0043 11.7536L13.0369 11.7759C13.0553 11.7881 13.07 11.7987 13.07 11.7994C13.07 11.8002 13.0641 11.8174 13.0571 11.8376C13.0501 11.8578 13.0457 11.8747 13.0472 11.8747C13.049 11.8747 13.0645 11.8644 13.0813 11.8523L13.1129 11.8295L13.1452 11.8545C13.1632 11.8684 13.1786 11.8791 13.1793 11.8783C13.1804 11.8772 13.1753 11.8596 13.168 11.8383ZM8.58851 11.1949L8.6076 11.1344L8.62631 11.0738L8.64503 11.134L8.66375 11.1942L8.79441 11.1982L8.7456 11.2338C8.71881 11.2533 8.69531 11.2702 8.69385 11.2713C8.69201 11.2727 8.69899 11.2988 8.70926 11.3296C8.71917 11.3601 8.72615 11.3865 8.72468 11.388C8.72321 11.3895 8.70046 11.3748 8.67403 11.3553L8.62668 11.3197L8.57823 11.3553C8.5518 11.3748 8.52869 11.3909 8.52722 11.3909C8.52575 11.3909 8.53309 11.3645 8.543 11.3318L8.56135 11.2731L8.51327 11.239C8.48648 11.2199 8.46482 11.2023 8.46482 11.1997C8.46445 11.1971 8.49235 11.1949 8.52648 11.1949H8.58851ZM7.99979 10.9692L7.99796 10.9766V10.9758L7.99979 10.9692ZM8.0064 10.9435L8.00383 10.9531L8.0042 10.9512L8.0064 10.9435ZM8.01264 10.9193L8.01007 10.9299L8.0108 10.9266L8.01264 10.9193ZM8.01888 10.8958L8.01594 10.9064L8.01741 10.902L8.01888 10.8958ZM8.02548 10.8727L8.02255 10.8833L8.02401 10.8775L8.02548 10.8727ZM8.03173 10.8496L8.02915 10.8598L8.03099 10.8529L8.03173 10.8496ZM13.3082 10.6587L13.288 10.5985L13.2682 10.5379L13.2498 10.5981L13.2315 10.6583L13.1665 10.6602L13.1012 10.662L13.1511 10.6969C13.1782 10.716 13.2006 10.735 13.2006 10.7398C13.2006 10.7442 13.1933 10.7695 13.1845 10.796C13.1753 10.8224 13.168 10.8466 13.168 10.8499C13.168 10.8532 13.1863 10.8422 13.2087 10.8257C13.2315 10.8092 13.2546 10.793 13.2601 10.7897C13.2678 10.7853 13.2825 10.7923 13.3188 10.8187C13.3456 10.8382 13.368 10.8532 13.3691 10.8525C13.3698 10.8514 13.3621 10.825 13.3515 10.7938L13.332 10.7365L13.3852 10.6976L13.4385 10.6587H13.3082ZM8.0387 10.8264L8.03576 10.836L8.03796 10.8283L8.0387 10.8264ZM8.04531 10.8033L8.04347 10.8099L8.04531 10.804V10.8033ZM8.05485 10.7721L8.05228 10.7809L8.05264 10.7795L8.05485 10.7721ZM8.06219 10.7483L8.05925 10.7582L8.05998 10.7552L8.06219 10.7483ZM8.06953 10.7248L8.06622 10.735L8.06769 10.731L8.06953 10.7248ZM8.07687 10.7016L8.07356 10.7123L8.0754 10.7072L8.07687 10.7016ZM8.08458 10.6789L8.08127 10.6895L8.08311 10.6829L8.08458 10.6789ZM8.09228 10.6561L8.08898 10.6664L8.09118 10.6591L8.09228 10.6561ZM8.09999 10.6337L8.09669 10.6429L8.09963 10.6348L8.09999 10.6337ZM8.11063 10.6029L8.1077 10.6121V10.611L8.11063 10.6029ZM8.11944 10.5791L8.11541 10.5897L8.11651 10.5871L8.11944 10.5791ZM8.12789 10.5559L8.12348 10.5673L8.12495 10.5636L8.12789 10.5559ZM8.13596 10.5335L8.13192 10.5449L8.13376 10.5398L8.13596 10.5335ZM8.1444 10.5112L8.14 10.5229L8.14257 10.5163L8.1444 10.5112ZM8.15321 10.4891L8.14844 10.5009L8.15174 10.4928L8.15321 10.4891ZM8.16165 10.4667L8.15688 10.4792L8.16092 10.4693L8.16165 10.4667ZM8.17009 10.4455L8.16496 10.459L8.17009 10.4458L8.17744 10.4275L8.17009 10.4455ZM8.18477 10.4102L8.17854 10.4249L8.17964 10.4223L8.18477 10.4102ZM8.19358 10.3889L8.18771 10.4033L8.18918 10.3992L8.19358 10.3889ZM8.20276 10.3673L8.19652 10.3816L8.19909 10.3761L8.20276 10.3673ZM8.21193 10.346L8.2057 10.3603L8.20863 10.353L8.21193 10.346ZM8.22148 10.3243L8.21451 10.3394L8.21891 10.3298L8.22148 10.3243Z" fill="#003687"/>
<path fill-rule="evenodd" clip-rule="evenodd" d="M8.23105 10.3027C8.26885 10.3008 8.34813 10.2913 8.43916 10.277C8.8506 10.2109 10.4714 10.2271 10.9775 10.3019C12.7617 10.5655 14.3139 11.2052 15.7012 12.2494L16.0943 12.5452C16.0635 12.7721 16.0139 12.993 15.9479 13.2066L15.615 12.9387C14.2144 11.8123 12.5756 11.1145 10.7731 10.8778C10.0574 10.7838 8.24536 10.8385 8.01634 10.9611C8.0101 10.9644 8.00386 10.9696 7.99799 10.9765C8.05634 10.7435 8.13452 10.5181 8.23105 10.3027ZM15.6392 12.8234C15.5427 12.7926 15.4964 12.6752 15.5434 12.5783C15.601 12.4586 15.7442 12.4168 15.8315 12.4938C15.873 12.5302 15.8899 12.568 15.8892 12.6245C15.8884 12.7056 15.8469 12.7717 15.7746 12.8066C15.7255 12.8304 15.6796 12.8363 15.6392 12.8234ZM15.7346 12.7478C15.7802 12.731 15.8161 12.6759 15.8161 12.6234C15.8161 12.5794 15.7985 12.5504 15.7636 12.5364C15.7284 12.5221 15.7145 12.5232 15.6744 12.5416C15.5985 12.5772 15.572 12.6752 15.6242 12.7295C15.6524 12.7592 15.6888 12.7651 15.7346 12.7478ZM15.2502 12.532C15.2068 12.5151 15.1444 12.4645 15.121 12.4263C15.0989 12.3907 15.0916 12.3452 15.1033 12.3166C15.1077 12.3059 15.1133 12.2971 15.1155 12.2971C15.118 12.2971 15.1349 12.3074 15.1536 12.3202C15.1823 12.3401 15.1867 12.3459 15.1826 12.3573C15.1742 12.3804 15.1826 12.4025 15.2101 12.4292C15.2645 12.4817 15.3258 12.4887 15.3258 12.4425C15.3258 12.4201 15.3159 12.4043 15.2659 12.3474C15.2413 12.3195 15.2153 12.285 15.2079 12.2711C15.1584 12.1731 15.2597 12.0897 15.3625 12.1441C15.4373 12.1837 15.4865 12.2344 15.499 12.2846C15.5041 12.3059 15.4917 12.3555 15.4799 12.3599C15.4751 12.3617 15.4579 12.3536 15.4414 12.3423C15.4146 12.3232 15.412 12.3195 15.4153 12.3001C15.4201 12.2714 15.4025 12.2424 15.3654 12.2182C15.3294 12.1943 15.3037 12.1932 15.2894 12.2149C15.2747 12.2373 15.2806 12.2498 15.3335 12.3081C15.4168 12.3999 15.4348 12.4513 15.4014 12.5005C15.3713 12.5449 15.3144 12.557 15.2502 12.532ZM14.8439 12.2505C14.7954 12.2355 14.7297 12.1881 14.7018 12.1481C14.6791 12.1158 14.671 12.0541 14.6864 12.0332C14.6952 12.0218 14.697 12.0222 14.7297 12.0428C14.7591 12.0607 14.7638 12.0663 14.7605 12.0791C14.7543 12.1033 14.7726 12.1367 14.8038 12.1584C14.8549 12.1932 14.9007 12.1969 14.9103 12.1668C14.9165 12.1477 14.9051 12.1305 14.8435 12.0652C14.7877 12.0068 14.7638 11.9683 14.7635 11.9371C14.7635 11.9279 14.7719 11.907 14.7826 11.8904C14.8082 11.8497 14.8468 11.8339 14.8923 11.8457C14.9628 11.8633 15.0406 11.9176 15.0637 11.9657C15.0791 11.9973 15.0806 12.0174 15.0699 12.0475C15.0611 12.0729 15.0556 12.0732 15.0186 12.0486C14.9921 12.031 14.9896 12.027 14.9914 12.0064C14.994 11.9749 14.9749 11.9503 14.9305 11.9268C14.8963 11.9092 14.893 11.9084 14.8762 11.918C14.8651 11.9242 14.8574 11.9345 14.8563 11.9451C14.8545 11.9595 14.8659 11.9749 14.9191 12.031C14.994 12.1099 15.0109 12.1415 14.9995 12.1833C14.991 12.2145 14.9573 12.249 14.9264 12.2578C14.8971 12.2663 14.8916 12.2659 14.8439 12.2505ZM14.3517 11.9635C14.2705 11.9169 14.2019 11.878 14.199 11.8769C14.1953 11.8754 14.3744 11.5484 14.3869 11.5341C14.388 11.5326 14.6717 11.693 14.6765 11.6978C14.6794 11.7007 14.6471 11.7609 14.6427 11.7609C14.6413 11.7609 14.4952 11.6787 14.4386 11.646L14.4111 11.6299L14.3942 11.6585C14.3851 11.6739 14.3777 11.6901 14.3777 11.6937C14.3777 11.6974 14.4203 11.7249 14.4728 11.7543L14.5678 11.8082L14.5517 11.835C14.5425 11.8501 14.5315 11.8611 14.5271 11.86C14.5223 11.8589 14.4801 11.8361 14.4328 11.8093C14.3854 11.7829 14.344 11.7609 14.3407 11.7609C14.3315 11.7609 14.2907 11.8398 14.297 11.846C14.2999 11.849 14.3524 11.8798 14.4137 11.9147C14.475 11.9492 14.5275 11.98 14.5304 11.9829C14.5344 11.987 14.5047 12.0501 14.4996 12.0483C14.4992 12.0479 14.4324 12.0097 14.3517 11.9635ZM14.0158 11.7796C13.9971 11.7697 13.992 11.7638 13.9953 11.7554C14.014 11.7102 14.0246 11.6724 14.0246 11.65V11.6236L13.9527 11.5876L13.8808 11.5517L13.8499 11.6137C13.833 11.6478 13.8162 11.6757 13.8121 11.6757C13.8088 11.6754 13.7934 11.6688 13.7784 11.6607L13.7508 11.6464L13.8386 11.4772C13.887 11.3839 13.9281 11.3061 13.9299 11.3039C13.9321 11.3017 13.9821 11.3245 14.0408 11.3538C14.156 11.4122 14.1821 11.4335 14.1949 11.4801C14.2034 11.5124 14.1986 11.5392 14.1773 11.5763C14.1619 11.6031 14.123 11.6302 14.1002 11.6302C14.0925 11.6302 14.09 11.6379 14.09 11.6644C14.0896 11.6996 14.0602 11.7873 14.0474 11.791C14.0441 11.7921 14.0298 11.7869 14.0158 11.7796ZM13.5882 11.5748L13.5673 11.5656L13.5772 11.5418L13.5871 11.5183L13.5622 11.5234C13.5053 11.5355 13.4546 11.523 13.4154 11.4874C13.3772 11.4533 13.3625 11.4199 13.3592 11.3601C13.3563 11.3116 13.3574 11.3069 13.3798 11.2606C13.3948 11.2305 13.4139 11.2037 13.4308 11.1894C13.5189 11.1138 13.6521 11.1413 13.6965 11.2445C13.7145 11.2856 13.7211 11.3359 13.7086 11.3359C13.6899 11.3359 13.6389 11.3091 13.6389 11.2992C13.6389 11.279 13.6165 11.2426 13.597 11.2305C13.5262 11.1876 13.4304 11.2566 13.4297 11.3509C13.4297 11.4133 13.4657 11.4537 13.5214 11.4537C13.5482 11.4537 13.593 11.4372 13.593 11.4273C13.593 11.4247 13.5813 11.4177 13.567 11.4118C13.5526 11.406 13.5409 11.4001 13.5409 11.399C13.5409 11.3975 13.5453 11.3858 13.5508 11.3726L13.5607 11.3487L13.5849 11.3594C13.5985 11.3649 13.6242 11.3751 13.6426 11.3821C13.7028 11.4049 13.702 11.4001 13.6594 11.4955C13.6385 11.5421 13.6191 11.581 13.6158 11.5821C13.6121 11.5829 13.6 11.5796 13.5882 11.5748ZM14.0925 11.5509C14.1014 11.5469 14.1124 11.5344 14.1168 11.5238C14.1303 11.4911 14.1157 11.475 14.0327 11.432L13.9597 11.3942L13.9366 11.4401L13.9134 11.486L13.9839 11.5219C14.0588 11.5601 14.0676 11.5623 14.0925 11.5509ZM13.0113 11.3366C12.9573 11.3193 12.914 11.2764 12.8964 11.2228C12.8817 11.1791 12.8861 11.1076 12.9059 11.069C12.9276 11.0268 12.9624 10.9916 13.0021 10.9725C13.0337 10.9571 13.0432 10.9553 13.0865 10.9582C13.1265 10.9608 13.1401 10.9644 13.1625 10.9802C13.2201 11.0198 13.2436 11.0723 13.2385 11.1494C13.2337 11.2243 13.1915 11.2885 13.1258 11.3216C13.0957 11.3366 13.0355 11.3443 13.0113 11.3366ZM13.0733 11.2632C13.1126 11.2522 13.1353 11.2331 13.1526 11.196C13.2087 11.0756 13.0957 10.9721 13.0032 11.0591C12.9375 11.1208 12.947 11.2283 13.0212 11.2614C13.0454 11.272 13.0417 11.272 13.0733 11.2632ZM12.6332 11.2034C12.6152 11.1975 12.6123 11.1942 12.616 11.1828C12.6226 11.1612 12.6266 11.0588 12.6207 11.0507C12.6182 11.0466 12.5826 11.0331 12.5422 11.0202L12.4684 10.9975L12.4475 11.0657C12.4273 11.1318 12.4262 11.1344 12.4101 11.1311C12.3785 11.1245 12.3561 11.1134 12.359 11.1054C12.3609 11.101 12.388 11.0184 12.42 10.9222C12.4585 10.8066 12.4813 10.7475 12.4871 10.7475C12.4919 10.7475 12.5444 10.7626 12.6031 10.7813C12.7184 10.8176 12.7503 10.836 12.7668 10.876C12.7786 10.9039 12.7782 10.9589 12.7665 10.982C12.7551 11.0037 12.7169 11.0386 12.6978 11.0448C12.6872 11.0481 12.6857 11.0514 12.6908 11.0613C12.7004 11.0793 12.6989 11.1215 12.6868 11.1696C12.6754 11.2147 12.6732 11.2162 12.6332 11.2034ZM11.916 10.9975C11.8705 10.9861 11.8698 11.0033 11.9256 10.8C11.9535 10.6991 11.9781 10.6146 11.9799 10.6128C11.9817 10.611 12.0361 10.6227 12.1003 10.6396C12.1796 10.6605 12.2236 10.6752 12.2383 10.6862C12.3084 10.7394 12.2985 10.8514 12.2199 10.8914C12.1851 10.909 12.1542 10.9079 12.0621 10.8844C12.0188 10.8734 11.9825 10.8653 11.9817 10.8664C11.9806 10.8683 11.9748 10.8903 11.9524 10.9747C11.945 11.0022 11.9417 11.0041 11.916 10.9975ZM12.682 10.9615C12.7019 10.9398 12.7048 10.9252 12.6945 10.905C12.6842 10.8851 12.678 10.8822 12.5928 10.8547C12.5624 10.8451 12.5338 10.836 12.5297 10.8345C12.5231 10.8319 12.4949 10.902 12.4949 10.9219C12.4949 10.9307 12.6237 10.9751 12.6523 10.9758C12.6618 10.9762 12.6747 10.9699 12.682 10.9615ZM11.2723 10.8646C11.1948 10.851 11.1313 10.8396 11.131 10.8393C11.1299 10.8389 11.1886 10.4961 11.1901 10.4943C11.1908 10.4935 11.2539 10.5034 11.3303 10.5166L11.4697 10.5409L11.4664 10.5691C11.4646 10.5849 11.4613 10.5996 11.4591 10.6018C11.4569 10.604 11.4092 10.5978 11.3527 10.5879C11.2965 10.5783 11.2484 10.5724 11.2458 10.5754C11.2433 10.5783 11.2396 10.5915 11.2374 10.6051C11.233 10.6334 11.2293 10.6315 11.3178 10.6458C11.4253 10.6638 11.4165 10.6594 11.4117 10.6906C11.4095 10.7057 11.4059 10.72 11.4037 10.7226C11.4015 10.7251 11.3604 10.7204 11.3126 10.7119C11.2506 10.7013 11.2246 10.6987 11.2231 10.7042C11.218 10.72 11.2066 10.782 11.2084 10.7838C11.2095 10.785 11.2587 10.7941 11.3178 10.8048L11.4257 10.8235L11.4239 10.8525C11.4228 10.8683 11.4198 10.8833 11.4173 10.8855C11.4147 10.8877 11.3493 10.8782 11.2723 10.8646ZM12.1898 10.8191C12.2188 10.796 12.2115 10.7493 12.1763 10.7354C12.1568 10.7277 12.0284 10.695 12.0265 10.6972C12.0258 10.698 12.0195 10.7196 12.0122 10.7457L11.999 10.793L12.0229 10.7993C12.17 10.8382 12.166 10.8374 12.1898 10.8191ZM8.42521 10.7872C8.3841 10.7703 8.34703 10.7343 8.32464 10.6884C8.30079 10.64 8.29968 10.5644 8.32207 10.5152C8.38704 10.3735 8.56505 10.3746 8.63515 10.5174C8.65974 10.5673 8.66121 10.6422 8.63845 10.6917C8.59845 10.7794 8.50706 10.8202 8.42521 10.7872ZM10.6234 10.7754C10.6013 10.7721 10.6013 10.7695 10.6146 10.6235C10.6197 10.5677 10.6234 10.5214 10.6223 10.5203C10.6212 10.5192 10.5984 10.5746 10.572 10.6433L10.5235 10.7684L10.4953 10.7651C10.4799 10.7633 10.4659 10.7607 10.4641 10.7589C10.4626 10.7574 10.4505 10.702 10.4373 10.6356C10.4244 10.5695 10.4116 10.513 10.409 10.5104C10.4068 10.5075 10.4013 10.5515 10.3969 10.6084C10.3925 10.6649 10.387 10.7215 10.3852 10.7336C10.3811 10.7552 10.3808 10.7556 10.3521 10.7523C10.3363 10.7504 10.322 10.7475 10.3206 10.746C10.3187 10.7442 10.3246 10.6594 10.3338 10.5574C10.3429 10.4554 10.3503 10.3695 10.3503 10.3662C10.3503 10.3577 10.4417 10.364 10.4472 10.3731C10.4498 10.3772 10.4633 10.4381 10.4769 10.5086C10.4909 10.579 10.5033 10.6359 10.5044 10.6348C10.5055 10.6337 10.5283 10.5768 10.5551 10.5086L10.6039 10.3845L10.6513 10.386C10.6769 10.3867 10.6993 10.3882 10.7004 10.3897C10.7015 10.3908 10.6957 10.4726 10.6869 10.5713C10.678 10.6701 10.6707 10.7574 10.6707 10.7655C10.6707 10.7805 10.6652 10.782 10.6234 10.7754ZM9.15377 10.7409V10.7159C9.15377 10.6822 9.13615 10.6169 9.12184 10.597C9.10972 10.5805 9.11009 10.5801 9.12808 10.5585C9.17946 10.4968 9.15817 10.4036 9.08476 10.368C9.0554 10.3537 9.05393 10.3537 8.93281 10.3618C8.86565 10.3662 8.80876 10.3717 8.80656 10.3739C8.80325 10.3772 8.82234 10.7523 8.82601 10.7589C8.82821 10.7629 8.89171 10.76 8.89391 10.7556C8.89538 10.753 8.89428 10.7215 8.89171 10.6855C8.88877 10.6495 8.8884 10.618 8.89097 10.6154C8.89354 10.6132 8.93024 10.6102 8.97319 10.6091L9.051 10.6069L9.06348 10.6312C9.07082 10.6447 9.07963 10.6748 9.08366 10.6983L9.09101 10.7409H9.15377ZM10.0071 10.7339C9.94215 10.7314 9.87351 10.7292 9.85406 10.7288L9.81919 10.7277L9.82323 10.5989C9.82543 10.5277 9.8291 10.4392 9.83131 10.4025L9.83534 10.335L9.9539 10.3386C10.0189 10.3408 10.0937 10.3441 10.1198 10.346L10.1671 10.3496V10.4205L10.0343 10.4165L9.90104 10.412L9.89701 10.4473C9.8948 10.4664 9.8948 10.4844 9.89774 10.4866C9.90031 10.4891 9.95023 10.4924 10.0086 10.4939C10.0669 10.4954 10.1161 10.4979 10.1176 10.4994C10.1191 10.5009 10.1187 10.5163 10.1165 10.5335L10.1132 10.5647L10.0034 10.5603L9.8937 10.5559L9.8915 10.6051L9.8893 10.6543L9.92783 10.6583C9.94912 10.6605 9.99757 10.6624 10.0357 10.6624C10.0739 10.6627 10.1205 10.6646 10.1392 10.6668L10.1737 10.6708V10.7057V10.7409L10.1492 10.7398C10.1356 10.7391 10.0717 10.7365 10.0071 10.7339ZM9.3215 10.7005C9.3193 10.6814 9.31709 10.5934 9.31709 10.5045V10.3434L9.40775 10.339C9.5498 10.3317 9.60155 10.3497 9.64669 10.4223C9.66358 10.4499 9.66614 10.4609 9.66871 10.5178C9.67275 10.6007 9.66174 10.637 9.61989 10.6785C9.57989 10.7182 9.55089 10.7259 9.42757 10.731L9.32554 10.735L9.3215 10.7005ZM8.52357 10.7152C8.59441 10.6833 8.60505 10.5761 8.54303 10.5144C8.50742 10.4785 8.4788 10.4726 8.43769 10.4924C8.35584 10.5321 8.35951 10.677 8.44319 10.7152C8.47733 10.7306 8.48981 10.7306 8.52357 10.7152ZM9.54612 10.6411C9.61769 10.6051 9.6254 10.4873 9.56007 10.4322C9.53328 10.4095 9.50942 10.4051 9.44372 10.4106L9.38904 10.4153V10.5207C9.3894 10.579 9.39124 10.633 9.39307 10.6411C9.39711 10.655 9.40041 10.6558 9.4573 10.6558C9.50648 10.6558 9.52226 10.6532 9.54612 10.6411ZM8.99557 10.5321C9.03668 10.5284 9.05357 10.5236 9.06311 10.5141C9.0811 10.4961 9.0811 10.4627 9.06311 10.4447C9.04733 10.4293 9.02053 10.4278 8.91923 10.437C8.87446 10.441 8.87152 10.4421 8.87519 10.4554C8.87739 10.4634 8.87886 10.4851 8.87923 10.5038V10.5383L8.91006 10.5379C8.92731 10.5376 8.96584 10.535 8.99557 10.5321Z" fill="white"/>
<path d="M15.6137 12.8049C15.5171 12.7741 15.471 12.6566 15.5177 12.5597C15.5753 12.4402 15.7183 12.3983 15.8059 12.4755C15.8475 12.512 15.864 12.5496 15.8635 12.6062C15.8627 12.6872 15.8211 12.7531 15.749 12.7882C15.6998 12.812 15.654 12.8176 15.6137 12.8049ZM15.7091 12.7294C15.7546 12.7123 15.7904 12.6575 15.7904 12.6049C15.7904 12.561 15.7728 12.5319 15.7379 12.518C15.7028 12.5039 15.6887 12.5048 15.649 12.5233C15.573 12.5587 15.5467 12.6569 15.5985 12.711C15.627 12.7406 15.6632 12.7468 15.7091 12.7294ZM15.2249 12.5137C15.1814 12.497 15.1191 12.4462 15.0956 12.4079C15.0736 12.3725 15.0663 12.327 15.0781 12.2985C15.0825 12.2876 15.0882 12.2788 15.0903 12.2788C15.0926 12.2788 15.1097 12.2892 15.1284 12.3022C15.1569 12.3217 15.1615 12.3278 15.1572 12.3392C15.1488 12.3621 15.1572 12.3841 15.1848 12.4107C15.239 12.4634 15.3004 12.4703 15.3004 12.424C15.3004 12.4016 15.2905 12.3861 15.2406 12.3293C15.216 12.3013 15.19 12.2669 15.1827 12.2527C15.1329 12.155 15.2343 12.0716 15.337 12.1259C15.4121 12.1654 15.4611 12.2161 15.4735 12.2664C15.4787 12.2876 15.4661 12.3371 15.4543 12.3415C15.4495 12.3434 15.4323 12.3356 15.4161 12.324C15.3889 12.3051 15.3866 12.3013 15.3899 12.2818C15.3944 12.2533 15.3769 12.2244 15.3401 12.1999C15.304 12.176 15.2782 12.175 15.264 12.1967C15.2492 12.2192 15.2552 12.2316 15.3078 12.2897C15.3913 12.3814 15.4093 12.4329 15.3759 12.4823C15.3457 12.5266 15.2891 12.5384 15.2249 12.5137ZM14.8185 12.2325C14.7702 12.2172 14.7048 12.1699 14.677 12.1302C14.6541 12.0976 14.6459 12.036 14.6614 12.0153C14.6699 12.0039 14.672 12.0042 14.7048 12.0246C14.7338 12.0426 14.7386 12.0484 14.7354 12.061C14.7293 12.0851 14.7477 12.1187 14.7786 12.1401C14.8294 12.175 14.8756 12.1788 14.8852 12.1487C14.8914 12.1295 14.8801 12.1125 14.8182 12.0472C14.7626 11.9886 14.7387 11.9502 14.7386 11.919C14.7384 11.9098 14.7468 11.8888 14.7573 11.8724C14.7831 11.8319 14.8217 11.8162 14.8672 11.8276C14.9375 11.8453 15.0152 11.8997 15.0383 11.9476C15.0537 11.9794 15.0554 11.9994 15.0448 12.0295C15.036 12.0549 15.0302 12.055 14.9933 12.0305C14.9668 12.013 14.9644 12.009 14.966 11.9883C14.9688 11.9569 14.9498 11.9322 14.9053 11.9089C14.8712 11.8911 14.868 11.8906 14.8511 11.8999C14.8399 11.9062 14.8324 11.9165 14.8311 11.9272C14.8294 11.9415 14.8409 11.9569 14.894 12.0128C14.9688 12.0918 14.9855 12.1234 14.9743 12.1653C14.9658 12.1964 14.9321 12.231 14.9013 12.2397C14.8718 12.2482 14.8665 12.2477 14.8185 12.2325ZM14.3267 11.9454C14.2458 11.8989 14.1773 11.8602 14.1743 11.859C14.1705 11.8575 14.3494 11.5304 14.362 11.5162C14.3631 11.5147 14.6465 11.6751 14.6515 11.6801C14.6543 11.6827 14.6219 11.743 14.6177 11.743C14.6161 11.743 14.4702 11.6609 14.4136 11.6279L14.3862 11.6121L14.3694 11.6405C14.3603 11.6561 14.3529 11.6721 14.3529 11.6759C14.3529 11.6798 14.3956 11.7069 14.4477 11.7365L14.5427 11.7903L14.5265 11.8173C14.5176 11.832 14.5065 11.8433 14.502 11.8421C14.4974 11.841 14.455 11.8181 14.4077 11.7915C14.3605 11.7648 14.3191 11.743 14.316 11.743C14.3065 11.743 14.2658 11.8219 14.2719 11.8281C14.2751 11.8312 14.3277 11.862 14.3888 11.8966C14.4499 11.9312 14.5024 11.9618 14.5053 11.965C14.5096 11.9689 14.4798 12.0322 14.4747 12.03C14.4742 12.0299 14.4075 11.9918 14.3267 11.9454ZM13.9912 11.7619C13.9723 11.7519 13.9674 11.746 13.9708 11.7377C13.9894 11.6925 14 11.6544 14 11.6321V11.6058L13.9281 11.5698L13.8561 11.5338L13.8253 11.5958C13.8083 11.6301 13.7914 11.6579 13.7878 11.6577C13.7841 11.6576 13.7687 11.651 13.7537 11.643L13.7263 11.6286L13.8141 11.4594C13.8622 11.3662 13.9033 11.2884 13.9055 11.2863C13.9076 11.2843 13.9573 11.3066 14.016 11.3363C14.1314 11.3944 14.1574 11.4157 14.17 11.4624C14.1787 11.4947 14.1739 11.5213 14.1526 11.5584C14.1372 11.5852 14.0985 11.6122 14.0753 11.6122C14.0677 11.6122 14.0652 11.6202 14.065 11.6467C14.0647 11.6817 14.0354 11.7695 14.0228 11.7731C14.0192 11.7741 14.0051 11.7691 13.9912 11.7619ZM13.564 11.5568L13.5429 11.5477L13.5527 11.5242L13.5626 11.5005L13.5378 11.5058C13.4809 11.5177 13.4302 11.5053 13.391 11.4699C13.3529 11.4356 13.3383 11.4023 13.3347 11.3424C13.3319 11.2941 13.3329 11.2891 13.3556 11.2431C13.3705 11.2131 13.3897 11.1861 13.4062 11.1719C13.4946 11.0963 13.6277 11.1237 13.6722 11.2267C13.6899 11.2681 13.6966 11.3182 13.6843 11.3182C13.6654 11.3182 13.6144 11.2913 13.6144 11.2813C13.6144 11.2611 13.5921 11.2249 13.5724 11.213C13.5017 11.1698 13.4059 11.2388 13.4054 11.3331C13.4052 11.3954 13.4411 11.4358 13.4971 11.4358C13.5239 11.4358 13.5686 11.4195 13.5686 11.4096C13.5686 11.4068 13.5568 11.3998 13.5426 11.394C13.5282 11.3884 13.5165 11.3825 13.5165 11.3811C13.5165 11.3798 13.5209 11.3679 13.5264 11.3548L13.5362 11.3311L13.5607 11.3416C13.5741 11.3472 13.5999 11.3576 13.6181 11.3644C13.6783 11.3873 13.6775 11.3823 13.6348 11.478C13.6141 11.5245 13.5944 11.5632 13.5911 11.5642C13.5878 11.5652 13.5755 11.5619 13.564 11.5568ZM14.0678 11.5329C14.0768 11.529 14.0877 11.5167 14.0922 11.5059C14.1057 11.4733 14.091 11.4573 14.0081 11.4142L13.9351 11.3763L13.9119 11.4224L13.8887 11.4684L13.9591 11.504C14.0342 11.5422 14.0427 11.5445 14.0678 11.5329ZM12.9871 11.3189C12.9333 11.3017 12.8899 11.2588 12.8722 11.2053C12.8576 11.1616 12.8621 11.09 12.8818 11.0516C12.9035 11.0095 12.9384 10.9743 12.978 10.9549C13.0094 10.9395 13.0192 10.9378 13.0622 10.9407C13.1023 10.9431 13.1159 10.9471 13.1384 10.9627C13.1957 11.0024 13.2193 11.055 13.2144 11.132C13.2094 11.2065 13.167 11.2709 13.1015 11.3038C13.0715 11.3187 13.0113 11.3267 12.9871 11.3189ZM13.0492 11.2456C13.0882 11.2346 13.1111 11.2154 13.1283 11.1784C13.1842 11.058 13.0715 10.9547 12.979 11.0416C12.9134 11.1032 12.9229 11.2108 12.9969 11.2436C13.021 11.2543 13.0177 11.2542 13.0492 11.2456ZM12.6092 11.1858C12.5913 11.18 12.5883 11.1764 12.5918 11.1651C12.5987 11.1436 12.6027 11.0413 12.5969 11.0332C12.5941 11.0291 12.5587 11.0155 12.5181 11.0029L12.4446 10.9799L12.4238 11.0483C12.4038 11.1143 12.4024 11.1166 12.3862 11.1135C12.3546 11.107 12.3322 11.0958 12.3352 11.0878C12.3369 11.0833 12.3644 11.0011 12.3963 10.9049C12.4347 10.7894 12.4574 10.7301 12.4633 10.7301C12.4683 10.7301 12.5205 10.7453 12.5794 10.7639C12.6944 10.8003 12.7262 10.8187 12.7429 10.8584C12.7547 10.8865 12.7543 10.9415 12.7424 10.9647C12.7312 10.9863 12.6929 11.0211 12.6739 11.0272C12.663 11.0307 12.6617 11.034 12.6669 11.0438C12.6765 11.0617 12.6749 11.1039 12.6628 11.1519C12.6514 11.1972 12.6494 11.1986 12.6092 11.1858ZM11.8926 10.9801C11.8471 10.9686 11.8462 10.9859 11.9022 10.7827C11.93 10.6818 11.9543 10.5975 11.9563 10.5955C11.9583 10.5935 12.0124 10.6056 12.0765 10.6223C12.1561 10.6432 12.2 10.6579 12.2144 10.669C12.2847 10.7222 12.2748 10.8339 12.1963 10.874C12.1614 10.8917 12.1306 10.8903 12.0384 10.867C11.9951 10.8561 11.959 10.848 11.9583 10.8491C11.9572 10.8508 11.951 10.873 11.9288 10.9572C11.9216 10.9845 11.9183 10.9867 11.8926 10.9801ZM12.6583 10.9441C12.6779 10.9223 12.681 10.9079 12.6704 10.8874C12.6603 10.8678 12.6539 10.8647 12.569 10.8375C12.5383 10.8276 12.51 10.8185 12.5059 10.817C12.4991 10.8144 12.4708 10.8847 12.4708 10.9042C12.4708 10.9133 12.5999 10.9577 12.6282 10.9584C12.6378 10.9585 12.6507 10.9524 12.6583 10.9441ZM11.2488 10.8471C11.1717 10.8336 11.1081 10.8221 11.1076 10.822C11.1067 10.8215 11.1654 10.4788 11.1667 10.477C11.1674 10.4762 11.2306 10.4863 11.3071 10.4995L11.4463 10.5235L11.4432 10.552C11.4414 10.5677 11.438 10.5823 11.4359 10.5844C11.4336 10.5868 11.3857 10.5806 11.3296 10.5707C11.2733 10.5609 11.2253 10.5553 11.2227 10.5583C11.22 10.5611 11.2162 10.5743 11.2142 10.5877C11.2099 10.6161 11.2063 10.6141 11.2947 10.6286C11.4021 10.6465 11.3932 10.6422 11.3886 10.6735C11.3862 10.6884 11.3826 10.7028 11.3804 10.7053C11.3781 10.7078 11.3371 10.703 11.2892 10.6945C11.2275 10.6838 11.2015 10.6814 11.1998 10.6867C11.1949 10.7026 11.1835 10.7647 11.1851 10.7665C11.1861 10.7675 11.2354 10.7769 11.2947 10.7874L11.4025 10.8062L11.4005 10.8351C11.3995 10.8509 11.3965 10.8658 11.394 10.868C11.3915 10.8701 11.3261 10.8609 11.2488 10.8471ZM12.1661 10.8014C12.1954 10.7786 12.1877 10.7321 12.1525 10.7182C12.1333 10.7106 12.0048 10.6776 12.003 10.6798C12.0023 10.6804 11.9959 10.7023 11.9886 10.7283L11.9754 10.7756L11.9994 10.7819C12.1464 10.8207 12.1424 10.8202 12.1661 10.8014ZM8.40353 10.7697C8.36248 10.7529 8.32556 10.7169 8.30322 10.6713C8.27921 10.6227 8.27822 10.5472 8.30057 10.4982C8.36546 10.3563 8.5434 10.3573 8.61342 10.5C8.63809 10.55 8.63941 10.6248 8.61673 10.6745C8.57668 10.7619 8.48547 10.8026 8.40353 10.7697ZM10.6003 10.7581C10.5786 10.7548 10.5784 10.752 10.5918 10.6061C10.597 10.5505 10.6003 10.5042 10.5993 10.503C10.5983 10.502 10.5756 10.5573 10.5491 10.626L10.5006 10.7508L10.4727 10.7478C10.4571 10.7462 10.4432 10.7433 10.4415 10.7417C10.4399 10.74 10.4278 10.6846 10.4147 10.6184C10.4017 10.5522 10.3889 10.4959 10.3864 10.4931C10.3841 10.4903 10.3785 10.5343 10.374 10.5911C10.3697 10.6477 10.3644 10.7041 10.3623 10.7162C10.3585 10.7379 10.3581 10.7381 10.3297 10.7349C10.3138 10.7331 10.2994 10.7303 10.2977 10.7286C10.296 10.727 10.302 10.6422 10.3111 10.5402C10.3202 10.4383 10.3275 10.3522 10.3275 10.3491C10.3275 10.3404 10.4189 10.3469 10.4245 10.3558C10.427 10.36 10.4404 10.4209 10.4543 10.4914C10.4682 10.5618 10.4804 10.6185 10.4816 10.6174C10.4828 10.6164 10.5054 10.5596 10.5323 10.4914L10.5809 10.3674L10.6283 10.3688C10.6543 10.3696 10.6764 10.3711 10.6776 10.3724C10.6789 10.3736 10.6726 10.4552 10.6639 10.554C10.6551 10.6526 10.6478 10.74 10.6478 10.748C10.6478 10.7634 10.6423 10.7644 10.6003 10.7581ZM9.1317 10.7235H9.06896L9.06168 10.6809C9.05771 10.6574 9.0486 10.6273 9.04165 10.6139L9.02891 10.5896L8.95127 10.5917C8.90857 10.5929 8.87149 10.5959 8.869 10.5983C8.86652 10.6007 8.86685 10.6321 8.86966 10.668C8.87248 10.704 8.87364 10.7356 8.87215 10.7382C8.86983 10.7427 8.80627 10.7457 8.80411 10.7415C8.80047 10.7349 8.78144 10.36 8.78458 10.3568C8.7869 10.3545 8.84368 10.3491 8.91088 10.3446C9.03189 10.3366 9.03321 10.3366 9.06284 10.351C9.13634 10.3865 9.15736 10.4797 9.10604 10.5411C9.088 10.5629 9.08784 10.5633 9.09975 10.5796C9.11415 10.5997 9.1317 10.6647 9.1317 10.6988V10.7235ZM9.98452 10.7167C9.91979 10.7142 9.8511 10.7117 9.83173 10.7112L9.79664 10.7104L9.80078 10.5815C9.80309 10.5104 9.80674 10.4221 9.80889 10.3851L9.81286 10.3179L9.93138 10.3216C9.99644 10.3237 10.0711 10.327 10.0972 10.329L10.1446 10.3327V10.4033L10.0117 10.399L9.87874 10.3949L9.87461 10.43C9.87229 10.4492 9.87245 10.4671 9.8751 10.4694C9.87775 10.4719 9.92774 10.475 9.98601 10.4767C10.0444 10.4782 10.0934 10.4808 10.0949 10.4823C10.0964 10.4838 10.0961 10.499 10.0941 10.5162L10.0906 10.5475L9.98088 10.5431L9.87129 10.5386L9.86898 10.5879L9.86683 10.6371L9.90539 10.6412C9.92658 10.6434 9.97508 10.6452 10.0132 10.6452C10.0512 10.6452 10.0979 10.6472 10.1168 10.6493L10.151 10.6535V10.6886V10.7235L10.1265 10.7223C10.1131 10.7218 10.0492 10.7192 9.98452 10.7167ZM9.29938 10.6831C9.29707 10.6641 9.29508 10.576 9.29508 10.4874V10.3264L9.38546 10.3217C9.52765 10.3145 9.5793 10.3325 9.62432 10.4053C9.6412 10.4326 9.64369 10.4439 9.6465 10.5005C9.65048 10.5834 9.63939 10.6199 9.59767 10.6611C9.55745 10.7006 9.52848 10.7086 9.40549 10.7136L9.30352 10.7179L9.29938 10.6831ZM8.50169 10.698C8.5727 10.6659 8.58313 10.5588 8.52155 10.4972C8.48563 10.4613 8.45716 10.4553 8.41611 10.4752C8.33434 10.5149 8.33798 10.6599 8.42174 10.6978C8.45567 10.7132 8.46808 10.7134 8.50169 10.698ZM9.52401 10.6238C9.59535 10.5879 9.60313 10.4699 9.53791 10.4151C9.51093 10.3924 9.48726 10.388 9.42171 10.3934L9.36692 10.3981L9.36708 10.5037C9.36708 10.5616 9.36891 10.6159 9.37106 10.6238C9.3747 10.6377 9.37834 10.6386 9.43495 10.6386C9.48412 10.6386 9.50017 10.6359 9.52401 10.6238ZM8.97378 10.5149C9.0145 10.5111 9.03139 10.5065 9.04115 10.4969C9.05903 10.479 9.05887 10.4452 9.04099 10.4273C9.02543 10.412 8.99861 10.4105 8.89747 10.4197C8.85245 10.4239 8.8498 10.425 8.85328 10.4383C8.85543 10.4461 8.85709 10.4677 8.85709 10.4866L8.85725 10.521L8.88837 10.5205C8.90542 10.5204 8.94382 10.5179 8.97378 10.5149Z" fill="#00A850"/>
<path fill-rule="evenodd" clip-rule="evenodd" d="M11.9946 15.2393C12.0002 15.2393 12.0085 15.2438 12.013 15.2493C12.0245 15.263 12.0276 15.2575 12.0199 15.2373C12.0144 15.2227 12.0159 15.2186 12.0312 15.2072L12.0489 15.194L12.0277 15.1938C12.0107 15.1936 12.0058 15.1904 12.0025 15.1772C12.0002 15.1682 11.9961 15.1609 11.9933 15.1609C11.9904 15.1609 11.9863 15.1682 11.984 15.1772C11.9807 15.1904 11.9758 15.1936 11.9588 15.1938L11.9376 15.194L11.9553 15.2072C11.9704 15.2184 11.9721 15.2228 11.9668 15.2368C11.9579 15.2601 11.9589 15.2624 11.9725 15.2501C11.9791 15.2442 11.9891 15.2393 11.9946 15.2393Z" fill="white"/>
<path fill-rule="evenodd" clip-rule="evenodd" d="M14.0818 15.145C14.0987 15.1573 14.1141 15.1674 14.1161 15.1674C14.1181 15.1674 14.114 15.1508 14.107 15.1305C14.1 15.1101 14.0943 15.0929 14.0943 15.0923C14.0943 15.0916 14.1091 15.081 14.1271 15.0688L14.1599 15.0465L14.1194 15.0433L14.0789 15.04L14.066 15.0011L14.0531 14.9623L14.0393 15.0011L14.0256 15.04L13.9841 15.0419L13.9427 15.0439L13.971 15.064C13.9866 15.0751 14.0016 15.0861 14.0044 15.0886C14.0071 15.0911 14.0034 15.1102 13.9962 15.1313C13.9889 15.1523 13.983 15.1706 13.983 15.172C13.983 15.1734 13.9984 15.1629 14.0171 15.1486L14.0513 15.1226L14.0818 15.145Z" fill="white"/>
<path fill-rule="evenodd" clip-rule="evenodd" d="M13.2165 14.829C13.2268 14.8218 13.2337 14.8246 13.2687 14.8503C13.2908 14.8665 13.3099 14.8799 13.3112 14.8799C13.3125 14.8799 13.3062 14.8574 13.2973 14.8299C13.284 14.7889 13.2827 14.779 13.2901 14.7748C13.295 14.772 13.315 14.7577 13.3346 14.7431L13.3701 14.7165H13.3145H13.2588L13.2431 14.6665L13.2274 14.6165L13.2113 14.6662L13.1951 14.716L13.1423 14.7179L13.0896 14.7197L13.1303 14.7491C13.1527 14.7653 13.1711 14.7818 13.1712 14.7857C13.1713 14.7896 13.1655 14.81 13.1583 14.8308C13.1511 14.8517 13.1452 14.8715 13.1452 14.8747C13.1452 14.878 13.1586 14.8709 13.1749 14.859C13.1912 14.8471 13.2099 14.8336 13.2165 14.829Z" fill="white"/>
<path fill-rule="evenodd" clip-rule="evenodd" d="M14.0589 14.723C14.0615 14.723 14.0796 14.735 14.0991 14.7497C14.1186 14.7645 14.1358 14.7752 14.1374 14.7736C14.139 14.772 14.1344 14.7519 14.1272 14.7289C14.12 14.7059 14.1141 14.685 14.114 14.6826C14.114 14.6801 14.132 14.6654 14.1542 14.6499L14.1945 14.6217L14.1424 14.6198L14.0902 14.618L14.0736 14.5675L14.0569 14.5172L14.0412 14.5675L14.0255 14.6179L13.9741 14.6198L13.9226 14.6217L13.9626 14.6506C13.9846 14.6665 14.0026 14.6814 14.0026 14.6838C14.0026 14.6861 13.9954 14.7093 13.9865 14.7353L13.9704 14.7826L14.0123 14.7528C14.0353 14.7364 14.0562 14.723 14.0589 14.723Z" fill="white"/>
<path fill-rule="evenodd" clip-rule="evenodd" d="M13.5805 14.4485C13.5831 14.4485 13.5997 14.459 13.6173 14.4719C13.6348 14.4848 13.6492 14.4941 13.6492 14.4926C13.6492 14.491 13.6433 14.4727 13.6361 14.4517C13.6289 14.4308 13.6238 14.4132 13.6247 14.4126C13.6256 14.412 13.6407 14.4015 13.6582 14.3892L13.6901 14.3668L13.6475 14.3649L13.605 14.363L13.5933 14.3224L13.5817 14.2819L13.5685 14.3224L13.5553 14.363L13.5122 14.3649L13.4692 14.3668L13.4921 14.3815C13.5412 14.413 13.5395 14.4093 13.5248 14.4519C13.5177 14.4727 13.5118 14.491 13.5118 14.4926C13.5118 14.4941 13.5262 14.4848 13.5437 14.4719C13.5613 14.4591 13.5779 14.4485 13.5805 14.4485Z" fill="white"/>
<path fill-rule="evenodd" clip-rule="evenodd" d="M14.4981 14.406C14.5147 14.4187 14.5297 14.4277 14.5313 14.4261C14.533 14.4244 14.5295 14.4092 14.5238 14.3921C14.5179 14.3751 14.5132 14.3588 14.5132 14.3558C14.5132 14.3529 14.5286 14.3394 14.5474 14.3259L14.5817 14.3014L14.536 14.2982L14.4903 14.2949L14.4806 14.2606C14.4752 14.2417 14.4693 14.2263 14.4674 14.2263C14.4655 14.2263 14.4595 14.2417 14.4542 14.2606L14.4444 14.2949L14.3988 14.2982L14.3531 14.3014L14.3873 14.3259C14.4062 14.3394 14.4216 14.353 14.4216 14.3562C14.4216 14.3593 14.4171 14.3744 14.4117 14.3897C14.3971 14.431 14.3989 14.4323 14.4348 14.4065L14.4678 14.3829L14.4981 14.406Z" fill="white"/>
<path fill-rule="evenodd" clip-rule="evenodd" d="M12.9328 14.3667C12.9503 14.3791 12.9655 14.3884 12.9666 14.3872C12.9677 14.3861 12.9642 14.3726 12.9587 14.3572C12.9443 14.3163 12.9461 14.31 12.9784 14.2884C12.9945 14.2776 13.0077 14.2667 13.0077 14.2642C13.0077 14.2617 12.9896 14.2587 12.9674 14.2577L12.927 14.2557L12.9166 14.2251C12.911 14.2083 12.9046 14.1929 12.9026 14.1909C12.9005 14.1889 12.8937 14.2034 12.8875 14.2231L12.8762 14.259L12.8323 14.2592C12.7835 14.2595 12.7832 14.2571 12.8374 14.2986L12.8593 14.3153L12.8484 14.3471C12.8425 14.3646 12.8376 14.3816 12.8376 14.3849C12.8376 14.3882 12.8519 14.3803 12.8693 14.3675L12.9011 14.3442L12.9328 14.3667Z" fill="white"/>
<path fill-rule="evenodd" clip-rule="evenodd" d="M14.0718 14.3275C14.0892 14.3399 14.1044 14.3491 14.1055 14.348C14.1066 14.3469 14.1031 14.3334 14.0977 14.318C14.0832 14.2771 14.085 14.2708 14.1173 14.2492C14.1335 14.2384 14.1466 14.2275 14.1467 14.225C14.1467 14.2225 14.1285 14.2195 14.1063 14.2185L14.0659 14.2165L14.0556 14.1859C14.0499 14.1691 14.0435 14.1537 14.0415 14.1517C14.0394 14.1497 14.0326 14.1642 14.0264 14.1839L14.0151 14.2198L13.9712 14.22C13.9224 14.2202 13.9221 14.2178 13.9764 14.2594L13.9982 14.2761L13.9873 14.3079C13.9814 14.3254 13.9765 14.3424 13.9765 14.3457C13.9765 14.3489 13.9908 14.3411 14.0083 14.3283L14.04 14.305L14.0718 14.3275Z" fill="white"/>
<path fill-rule="evenodd" clip-rule="evenodd" d="M10.2936 14.2765L10.3383 14.2442L10.3558 14.257C10.4073 14.2949 10.442 14.3187 10.442 14.3164C10.442 14.3149 10.4332 14.2876 10.4224 14.2557C10.4116 14.2238 10.4028 14.1973 10.4028 14.1967C10.4028 14.1961 10.4252 14.1798 10.4528 14.1603L10.5028 14.125L10.4398 14.1231L10.3768 14.1213L10.3578 14.061C10.3368 13.9947 10.3382 13.9944 10.3145 14.0718L10.3003 14.1185L10.2363 14.1217L10.1723 14.125L10.2221 14.1597C10.2494 14.1787 10.2718 14.1966 10.2718 14.1993C10.2718 14.202 10.2632 14.2299 10.2526 14.2612C10.242 14.2925 10.2368 14.316 10.2411 14.3134C10.2454 14.3109 10.269 14.2942 10.2936 14.2765Z" fill="white"/>
<path fill-rule="evenodd" clip-rule="evenodd" d="M14.8378 14.2165C14.8591 14.2325 14.8781 14.2457 14.8802 14.2457C14.8823 14.2458 14.8769 14.2246 14.8684 14.1985L14.8529 14.1511L14.8744 14.1327C14.8863 14.1226 14.9042 14.1095 14.9141 14.1036C14.924 14.0976 14.9321 14.0905 14.9321 14.0876C14.9321 14.0848 14.909 14.0825 14.8809 14.0825H14.8296L14.814 14.0326L14.7983 13.9826L14.782 14.0326L14.7658 14.0825H14.7147C14.6867 14.0825 14.6638 14.0847 14.6639 14.0874C14.664 14.0901 14.6816 14.1041 14.703 14.1185C14.7244 14.1328 14.742 14.1478 14.7421 14.1518C14.7422 14.1557 14.7364 14.176 14.7292 14.1969C14.722 14.2178 14.7161 14.2375 14.7161 14.2407C14.7161 14.2439 14.7348 14.2333 14.7576 14.2169L14.7992 14.1873L14.8378 14.2165Z" fill="white"/>
<path fill-rule="evenodd" clip-rule="evenodd" d="M11.9409 13.9453C11.9652 13.9273 11.9888 13.9126 11.9933 13.9126C11.9978 13.9126 12.0214 13.9273 12.0456 13.9453C12.0699 13.9632 12.0914 13.978 12.0935 13.978C12.0955 13.978 12.0885 13.9524 12.0779 13.9212C12.0674 13.89 12.0587 13.8636 12.0587 13.8626C12.0587 13.8616 12.0816 13.8438 12.1095 13.823L12.1602 13.7851L12.0948 13.7819L12.0295 13.7786L12.0135 13.7247C12.0048 13.695 11.9957 13.6708 11.9933 13.6708C11.9909 13.6708 11.9818 13.695 11.973 13.7247L11.957 13.7786L11.8917 13.7819L11.8264 13.7851L11.8771 13.823C11.905 13.8438 11.9278 13.8616 11.9278 13.8626C11.9278 13.8636 11.9192 13.89 11.9086 13.9212C11.898 13.9524 11.891 13.978 11.8931 13.978C11.8951 13.978 11.9166 13.9632 11.9409 13.9453Z" fill="white"/>
<path fill-rule="evenodd" clip-rule="evenodd" d="M15.0517 13.8603C15.0548 13.8603 15.0749 13.8737 15.0962 13.8901C15.1175 13.9065 15.1349 13.9172 15.1349 13.914C15.1349 13.9108 15.1291 13.891 15.1219 13.8701C15.1147 13.8492 15.1088 13.8285 15.1088 13.824C15.1088 13.8195 15.127 13.8023 15.1493 13.7858L15.1898 13.7558H15.1365H15.0831L15.067 13.7051C15.0497 13.6505 15.0499 13.6504 15.0309 13.7146L15.0197 13.7525L14.9652 13.7544L14.9106 13.7563L14.9514 13.785C14.9739 13.8008 14.9934 13.8148 14.9949 13.8163C14.9963 13.8177 14.9901 13.8405 14.9811 13.8669C14.9721 13.8933 14.9648 13.9159 14.9648 13.9171C14.9648 13.9183 14.983 13.906 15.0054 13.8898C15.0277 13.8736 15.0485 13.8603 15.0517 13.8603Z" fill="white"/>
<path fill-rule="evenodd" clip-rule="evenodd" d="M9.67231 13.8875C9.67416 13.8845 9.68732 13.874 9.70152 13.8642L9.72735 13.8464L9.76072 13.8703C9.77905 13.8835 9.79407 13.8929 9.79407 13.8914C9.79407 13.8898 9.78838 13.872 9.78143 13.8518L9.76876 13.815L9.80258 13.7903L9.83642 13.7656L9.7935 13.7636L9.7506 13.7617L9.74229 13.7293C9.73771 13.7115 9.73178 13.6956 9.72913 13.694C9.72646 13.6923 9.71921 13.707 9.71303 13.7266L9.70177 13.7623L9.65794 13.7625L9.61407 13.7627L9.63359 13.7772C9.64433 13.7851 9.65991 13.7975 9.66823 13.8047L9.68334 13.8178L9.67033 13.8554C9.66318 13.8761 9.65994 13.893 9.66313 13.893C9.66632 13.893 9.67045 13.8905 9.67231 13.8875Z" fill="white"/>
<path fill-rule="evenodd" clip-rule="evenodd" d="M14.8326 13.5401C14.8573 13.5221 14.8798 13.5074 14.8827 13.5074C14.8856 13.5074 14.9083 13.5225 14.9332 13.5409C14.9581 13.5593 14.9795 13.5733 14.9809 13.5719C14.9823 13.5706 14.9752 13.5441 14.9652 13.513L14.947 13.4566L14.9962 13.4215L15.0453 13.3865L14.9838 13.3832L14.9223 13.3799L14.902 13.3214L14.8817 13.2629L14.8622 13.3214L14.8427 13.3799L14.7824 13.3832L14.722 13.3865L14.7682 13.4209C14.7935 13.4398 14.8143 13.4592 14.8143 13.4639C14.8143 13.4686 14.8069 13.494 14.7979 13.5205C14.7889 13.5469 14.7815 13.5695 14.7815 13.5706C14.7815 13.576 14.7908 13.5705 14.8326 13.5401Z" fill="white"/>
<path fill-rule="evenodd" clip-rule="evenodd" d="M15.4855 13.5433C15.503 13.5556 15.5181 13.5649 15.5193 13.5637C15.5204 13.5626 15.5168 13.5491 15.5114 13.5337C15.497 13.4929 15.4988 13.4866 15.5311 13.4649C15.5472 13.4541 15.5604 13.4432 15.5604 13.4407C15.5604 13.4382 15.5423 13.4352 15.52 13.4342L15.4797 13.4322L15.4693 13.4017C15.4636 13.3848 15.4573 13.3694 15.4552 13.3674C15.4532 13.3654 15.4464 13.3799 15.4402 13.3996L15.4289 13.4355L15.385 13.4357C15.3362 13.436 15.3358 13.4336 15.3901 13.4751L15.412 13.4918L15.4011 13.5237C15.3951 13.5411 15.3902 13.5581 15.3902 13.5614C15.3902 13.5647 15.4045 13.5569 15.422 13.544L15.4538 13.5207L15.4855 13.5433Z" fill="white"/>
<path fill-rule="evenodd" clip-rule="evenodd" d="M9.83914 13.4566C9.84955 13.4493 9.85638 13.4521 9.89133 13.4778C9.91347 13.4941 9.93262 13.5074 9.93388 13.5074C9.93517 13.5074 9.92891 13.4849 9.91998 13.4575C9.90665 13.4164 9.90536 13.4066 9.91276 13.4024C9.91768 13.3996 9.93772 13.3853 9.95728 13.3706L9.99281 13.344H9.93715H9.88149L9.8658 13.294L9.8501 13.2441L9.83394 13.2938L9.81779 13.3435L9.76502 13.3454L9.71228 13.3473L9.75302 13.3767C9.77541 13.3929 9.79382 13.4093 9.79392 13.4132C9.79401 13.4172 9.7882 13.4375 9.781 13.4584C9.7738 13.4793 9.76792 13.499 9.76792 13.5023C9.76792 13.5056 9.78125 13.4985 9.79755 13.4866C9.81385 13.4747 9.83256 13.4612 9.83914 13.4566Z" fill="white"/>
<path fill-rule="evenodd" clip-rule="evenodd" d="M8.44638 13.4383L8.48527 13.4084L8.5277 13.4386C8.55103 13.4552 8.5701 13.4662 8.5701 13.463C8.5701 13.4598 8.56421 13.4401 8.55701 13.4192C8.54981 13.3983 8.54393 13.3778 8.54393 13.3737C8.54393 13.3695 8.56233 13.3531 8.58484 13.3371L8.62573 13.3081L8.57193 13.3062L8.51812 13.3043L8.50244 13.2546L8.48673 13.2049L8.47063 13.2532L8.45452 13.3015L8.40017 13.3048L8.34583 13.3081L8.38236 13.3331C8.4355 13.3696 8.43486 13.3679 8.41665 13.4214C8.40787 13.4471 8.40223 13.4682 8.40408 13.4682C8.40594 13.4682 8.42499 13.4547 8.44638 13.4383Z" fill="white"/>
<path fill-rule="evenodd" clip-rule="evenodd" d="M11.7574 13.3606C11.7715 13.3436 11.7894 13.3424 11.81 13.3571C11.831 13.3721 11.8336 13.3685 11.8226 13.3395C11.8161 13.3226 11.8176 13.3195 11.8406 13.3L11.8656 13.2788L11.8351 13.2788C11.805 13.2787 11.8044 13.2782 11.7951 13.2509L11.7856 13.2231L11.7771 13.2509C11.7688 13.278 11.7679 13.2787 11.7402 13.2787C11.7066 13.2787 11.7044 13.2846 11.7321 13.3009C11.7528 13.3131 11.7544 13.324 11.741 13.3587C11.7356 13.3726 11.7464 13.3738 11.7574 13.3606Z" fill="white"/>
<path fill-rule="evenodd" clip-rule="evenodd" d="M12.5398 13.0891C12.5308 13.0627 12.5234 13.0406 12.5234 13.0399C12.5234 13.0393 12.5418 13.0258 12.5643 13.01L12.6052 12.9813L12.5537 12.978L12.5022 12.9748L12.4893 12.9323C12.4822 12.9089 12.4742 12.8875 12.4715 12.8847C12.4689 12.8818 12.4602 12.9017 12.4523 12.9288L12.438 12.978H12.3851H12.3322L12.3722 13.0074C12.3941 13.0236 12.4122 13.0408 12.4122 13.0456C12.4122 13.0504 12.4062 13.0715 12.399 13.0925C12.3918 13.1134 12.3872 13.1317 12.3887 13.1333C12.3902 13.1348 12.408 13.1239 12.4282 13.109C12.4512 13.092 12.4692 13.0832 12.4762 13.0855C12.4824 13.0876 12.5022 13.1006 12.5201 13.1146C12.5381 13.1285 12.5536 13.1393 12.5545 13.1385L12.5398 13.0891Z" fill="white"/>
<path fill-rule="evenodd" clip-rule="evenodd" d="M8.98111 13.0584C8.99051 13.0518 8.99989 13.0561 9.04098 13.086C9.06777 13.1055 9.0906 13.1206 9.09167 13.1195C9.09276 13.1184 9.08506 13.0921 9.07457 13.0611L9.05548 13.0048L9.10851 12.9652L9.16158 12.9257H9.09629H9.03103L9.01149 12.8661L8.99197 12.8065L8.97295 12.8659L8.95395 12.9253L8.88929 12.9271L8.82465 12.929L8.8741 12.9643C8.90128 12.9837 8.9235 13.0028 8.92345 13.0068C8.9234 13.0107 8.91603 13.0375 8.90707 13.0662C8.89814 13.095 8.89082 13.1194 8.89082 13.1206C8.89082 13.1217 8.90863 13.1099 8.93038 13.0944C8.95215 13.0789 8.97498 13.0627 8.98111 13.0584Z" fill="white"/>
<path fill-rule="evenodd" clip-rule="evenodd" d="M11.5784 13.0695C11.5806 13.0695 11.5968 13.08 11.6144 13.0929C11.632 13.1058 11.6463 13.1151 11.6463 13.1136C11.6463 13.112 11.6406 13.0941 11.6336 13.0737L11.6208 13.0366L11.6536 13.0122L11.6864 12.9878L11.6444 12.9859L11.6024 12.984L11.5902 12.9438L11.5781 12.9037L11.5652 12.9439L11.5523 12.984L11.5102 12.9859L11.468 12.9878L11.4999 13.0102C11.5174 13.0225 11.5325 13.033 11.5334 13.0336C11.5353 13.0348 11.52 13.0852 11.5117 13.1054C11.5075 13.1154 11.5141 13.1127 11.5403 13.0939C11.5591 13.0805 11.5762 13.0695 11.5784 13.0695Z" fill="white"/>
<path fill-rule="evenodd" clip-rule="evenodd" d="M9.41983 12.7807L9.44296 12.7983L9.43846 12.782C9.43599 12.773 9.43227 12.7594 9.43025 12.7517C9.4273 12.7408 9.43185 12.7346 9.45157 12.7223L9.4766 12.7068L9.44445 12.7035C9.41347 12.7004 9.41196 12.6993 9.40447 12.6741C9.39653 12.6475 9.39588 12.6478 9.38206 12.6855C9.37632 12.7013 9.37196 12.7035 9.3475 12.7038L9.31952 12.704L9.34161 12.7229C9.36405 12.7421 9.36514 12.7493 9.35121 12.7856C9.34774 12.7945 9.35205 12.7934 9.37177 12.78L9.39668 12.7631L9.41983 12.7807Z" fill="white"/>
<path fill-rule="evenodd" clip-rule="evenodd" d="M12.0358 12.7392C12.0592 12.7559 12.0784 12.7684 12.0784 12.7671C12.0784 12.7657 12.0711 12.7434 12.0623 12.7175L12.0463 12.6703L12.0892 12.6395L12.1321 12.6087L12.0793 12.6069L12.0266 12.605L12.0119 12.5595C12.0039 12.5345 11.9955 12.514 11.9933 12.514C11.9911 12.514 11.9827 12.5345 11.9746 12.5595L11.96 12.605L11.9072 12.6069L11.8545 12.6087L11.8974 12.6395L11.9403 12.6703L11.9243 12.7175C11.9154 12.7434 11.9082 12.7657 11.9082 12.7671C11.9082 12.7684 11.9273 12.7559 11.9507 12.7392L11.9933 12.7089L12.0358 12.7392Z" fill="white"/>
<path fill-rule="evenodd" clip-rule="evenodd" d="M10.3806 12.246C10.3997 12.2317 10.4185 12.2199 10.4224 12.2199C10.4263 12.2199 10.4451 12.2317 10.4642 12.246C10.4832 12.2604 10.5005 12.2722 10.5025 12.2722C10.5044 12.2722 10.4993 12.2504 10.4911 12.2238L10.4762 12.1755L10.5195 12.1454L10.5627 12.1153H10.5091H10.4554L10.4405 12.0664C10.4324 12.0394 10.4242 12.0174 10.4224 12.0174C10.4206 12.0174 10.4124 12.0394 10.4042 12.0664L10.3893 12.1153H10.3357H10.282L10.3686 12.1755L10.3537 12.2238C10.3454 12.2504 10.3404 12.2722 10.3423 12.2722C10.3443 12.2722 10.3615 12.2604 10.3806 12.246Z" fill="white"/>
<path fill-rule="evenodd" clip-rule="evenodd" d="M13.1714 11.8374C13.1641 11.8164 13.1604 11.7971 13.1632 11.7947C13.1659 11.7922 13.1809 11.7812 13.1965 11.7701L13.2248 11.75L13.1834 11.748L13.142 11.7461L13.1282 11.7072L13.1144 11.6684L13.1015 11.7072L13.0886 11.7461L13.0481 11.7493L13.0077 11.7526L13.0405 11.7749C13.0585 11.7871 13.0732 11.7977 13.0732 11.7983C13.0732 11.799 13.0675 11.8162 13.0605 11.8365C13.0535 11.8569 13.0491 11.8735 13.0507 11.8735C13.0523 11.8735 13.0677 11.8634 13.0849 11.851L13.1162 11.8286L13.1487 11.8536C13.1666 11.8673 13.182 11.8779 13.1829 11.8771C13.1838 11.8763 13.1786 11.8584 13.1714 11.8374Z" fill="white"/>
<path fill-rule="evenodd" clip-rule="evenodd" d="M8.57921 11.3542L8.6275 11.3186L8.67517 11.3542C8.70142 11.3738 8.7241 11.3886 8.72558 11.3871C8.72709 11.3856 8.72012 11.3592 8.7101 11.3285C8.70008 11.2978 8.6932 11.2717 8.69481 11.2704C8.69639 11.2692 8.7197 11.2522 8.74659 11.2327L8.79544 11.1971L8.73001 11.1953L8.66458 11.1934L8.646 11.1332L8.62742 11.0729L8.60838 11.1334L8.58933 11.1938H8.52736C8.49325 11.1938 8.46544 11.196 8.46552 11.1987C8.46561 11.2014 8.48741 11.219 8.51398 11.2378L8.56229 11.272L8.54393 11.331C8.53384 11.3634 8.52679 11.3899 8.52828 11.3899C8.52973 11.3899 8.55267 11.3738 8.57921 11.3542Z" fill="white"/>
<path fill-rule="evenodd" clip-rule="evenodd" d="M13.2636 10.7888C13.2714 10.7842 13.286 10.7914 13.3224 10.8179C13.349 10.8373 13.3716 10.8523 13.3725 10.8514C13.3734 10.8504 13.3655 10.824 13.3549 10.7927L13.3356 10.7357L13.3889 10.6968L13.4421 10.6579H13.3768H13.3116L13.2916 10.5975L13.2716 10.537L13.2533 10.5972L13.235 10.6575L13.1698 10.6593L13.1046 10.6612L13.1544 10.6958C13.1817 10.7149 13.2041 10.7342 13.2041 10.7388C13.2041 10.7434 13.1968 10.7687 13.1878 10.7952C13.1788 10.8216 13.1714 10.8458 13.1714 10.849C13.1714 10.8522 13.1898 10.8413 13.2123 10.8248C13.2348 10.8084 13.2579 10.7922 13.2636 10.7888Z" fill="white"/>
</g>
</svg>
