<svg width="24" height="24" viewBox="0 0 24 24" fill="none" xmlns="http://www.w3.org/2000/svg">
<mask id="mask0_6_161" style="mask-type:alpha" maskUnits="userSpaceOnUse" x="0" y="0" width="24" height="24">
<circle cx="12" cy="12" r="11.625" fill="#D9D9D9"/>
</mask>
<g mask="url(#mask0_6_161)">
<path d="M2.25 23.625C1.33359 23.625 0.570469 22.9673 0.407344 22.0983C0.38625 21.9853 0.375 21.8691 0.375 21.75V15.875V9.55453V2.25C0.375 2.13094 0.38625 2.01469 0.407812 1.90172C0.570469 1.03266 1.33359 0.375 2.25 0.375H8.125V23.625H2.25Z" fill="#0052B4"/>
<path d="M22.0983 23.5922C21.9853 23.6137 21.8691 23.625 21.75 23.625H15.875V0.375H21.75C21.8691 0.375 21.9858 0.38625 22.0987 0.407344C22.4766 0.478594 22.8145 0.663281 23.0756 0.924375C23.415 1.26375 23.625 1.7325 23.625 2.25V9.55452V15.875V21.75C23.625 22.6664 22.9673 23.4295 22.0983 23.5922Z" fill="#D80027"/>
<path d="M12 23.625H8.125V0.375H15.875V23.625H12Z" fill="#F0F0F0"/>
</g>
</svg>
