<svg width="45" height="45" viewBox="0 0 45 45" fill="none" xmlns="http://www.w3.org/2000/svg">
<g clip-path="url(#clip0_426_245)">
<path d="M22.0736 44.1472C16.2005 44.1472 10.6636 41.8449 6.483 37.6642C2.30238 33.4836 0 27.9468 0 22.0736C0 19.0881 0.592884 16.1882 1.76235 13.4546C1.97369 12.9606 2.4688 12.648 3.0052 12.671C3.54204 12.6934 4.00912 13.0452 4.17873 13.5549L5.31629 16.9739L7.43596 18.3871L7.85278 14.1857C7.89666 13.7437 8.16422 13.3551 8.56155 13.1565L13.327 10.7745L14.4697 8.25916C14.6083 7.95418 14.8597 7.71482 15.1711 7.59151L17.3086 6.7453L13.477 3.86159C13.1053 3.58179 12.9125 3.12402 12.972 2.66263C13.0315 2.20124 13.3344 1.80736 13.765 1.63121C16.4099 0.548823 19.2054 0 22.0736 0C30.0272 0 37.4055 4.33505 41.329 11.3135C41.517 11.6479 41.5469 12.0486 41.4105 12.4072C41.274 12.7658 40.9854 13.0453 40.6227 13.1703L36.051 14.7447C35.8475 14.8148 35.6295 14.8331 35.4172 14.7976L31.1353 14.0837C30.7828 14.0249 30.4703 13.8228 30.272 13.5255L29.4901 12.3532L24.5703 14.9348L27.5461 15.6417C27.8712 15.719 28.1538 15.919 28.3347 16.2001L29.7927 18.465L31.7472 17.9761C32.1007 17.8876 32.4752 17.9525 32.7784 18.1546L34.9193 19.5816C35.2792 19.8215 35.4954 20.2254 35.4954 20.6579V23.0069L39.2833 27.1086C39.5039 27.3476 39.6265 27.6609 39.6265 27.9862V34.9764C39.6265 35.2691 39.5272 35.5531 39.3449 35.782C37.318 38.328 34.712 40.4336 31.8084 41.8714C28.7587 43.3815 25.4834 44.1472 22.0736 44.1472Z" fill="url(#paint0_linear_426_245)"/>
<path d="M41.3288 11.3132C41.0225 10.7688 40.371 10.5211 39.7805 10.7245L35.519 12.1922L32.1132 11.6243L30.9961 9.94927C30.629 9.39864 29.9052 9.21411 29.3191 9.52159L20.3095 14.2493C19.8319 14.5 19.5599 15.0207 19.6272 15.5559C19.6944 16.0911 20.0867 16.5283 20.6115 16.653L26.4415 18.0381L28.1195 20.6448C28.4194 21.1108 28.9831 21.3341 29.5209 21.1994L31.8199 20.6243L32.9087 21.35V23.5126C32.9087 23.8379 33.0312 24.1512 33.2518 24.3902L37.0397 28.4919V34.9764C37.0397 35.5262 37.3873 36.0159 37.9064 36.1973C38.0462 36.2462 38.1902 36.2698 38.3328 36.2698C38.7193 36.2698 39.0946 36.0962 39.3448 35.782C40.8678 33.8694 42.0544 31.7401 42.8716 29.453C43.7181 27.0844 44.1472 24.6017 44.1472 22.0736C44.1472 18.3112 43.1726 14.5903 41.3288 11.3132ZM21.61 24.2837L17.5709 23.4756L14.1615 19.7256C13.9124 19.4516 13.5579 19.2986 13.1874 19.3024L9.94037 19.3454L10.3565 15.1512L14.8934 12.8835C15.1585 12.751 15.3701 12.5315 15.4927 12.2616L16.6089 9.8045L20.4053 8.30151C20.8403 8.12932 21.1484 7.73553 21.211 7.27189C21.2736 6.80826 21.0808 6.34687 20.707 6.06561L15.0326 1.79488C14.6683 1.52068 14.1865 1.45851 13.7645 1.6314C8.41031 3.82436 4.03559 8.13397 1.7621 13.4552C1.63793 13.7458 1.62448 14.0718 1.72424 14.3717L3.0021 18.2121C3.09298 18.4853 3.27242 18.7203 3.51195 18.8799L7.21704 21.35V24.1249C7.21704 24.4617 7.34836 24.7852 7.58324 25.0267L10.7859 28.3199V31.9749C10.7859 32.2774 10.892 32.5704 11.0857 32.8028L14.6537 37.0847C14.9043 37.3855 15.271 37.5502 15.6475 37.5502C15.7948 37.5502 15.9436 37.525 16.0875 37.4729C16.5995 37.2875 16.9406 36.8013 16.9406 36.2568V33.3355L19.2781 31.5825C19.6038 31.3383 19.7955 30.9549 19.7955 30.5478V28.9425L22.2708 26.4664C22.608 26.1291 22.7322 25.6336 22.594 25.1771C22.4559 24.7206 22.0777 24.3773 21.61 24.2837Z" fill="url(#paint1_linear_426_245)"/>
</g>
<defs>
<linearGradient id="paint0_linear_426_245" x1="20.7475" y1="44.1472" x2="20.7475" y2="0" gradientUnits="userSpaceOnUse">
<stop stop-color="#5558FF"/>
<stop offset="1" stop-color="#00C0FF"/>
</linearGradient>
<linearGradient id="paint1_linear_426_245" x1="22.9027" y1="37.5503" x2="22.9027" y2="1.53482" gradientUnits="userSpaceOnUse">
<stop stop-color="#ADDCFF"/>
<stop offset="0.5028" stop-color="#EAF6FF"/>
<stop offset="1" stop-color="#EAF6FF"/>
</linearGradient>
<clipPath id="clip0_426_245">
<rect width="44.1472" height="44.1472" fill="white"/>
</clipPath>
</defs>
</svg>
