<svg width="157" height="45" viewBox="0 0 157 45" fill="none" xmlns="http://www.w3.org/2000/svg">
<g clip-path="url(#clip0_6_29)">
<path d="M61.2073 32.8763C60.3064 32.8763 59.6615 32.7432 59.2725 32.477C58.8835 32.2108 58.648 31.8628 58.5661 31.4328C58.4842 31.0029 58.4433 30.5422 58.4433 30.0508V14.2039C58.4433 13.7535 58.4842 13.3235 58.5661 12.914C58.648 12.4841 58.8835 12.136 59.2725 11.8698C59.6615 11.5832 60.3269 11.4399 61.2687 11.4399C61.9034 11.4399 62.3641 11.4808 62.6507 11.5627C62.9578 11.6446 63.1728 11.747 63.2957 11.8698C63.439 11.9927 63.5823 12.136 63.7256 12.2998L70.0828 20.469H69.8985L76.225 12.3305C76.4298 12.1053 76.6141 11.9313 76.7778 11.8084C76.9621 11.6856 77.1976 11.5934 77.4842 11.532C77.7913 11.4706 78.2213 11.4399 78.7741 11.4399C79.6954 11.4399 80.3506 11.5832 80.7396 11.8698C81.1286 12.136 81.364 12.4841 81.4459 12.914C81.5278 13.344 81.5688 13.7944 81.5688 14.2653V30.1123C81.5688 30.5627 81.5278 31.0029 81.4459 31.4328C81.364 31.8628 81.1286 32.2108 80.7396 32.477C80.3506 32.7432 79.6852 32.8763 78.7434 32.8763C77.822 32.8763 77.1669 32.7432 76.7778 32.477C76.3888 32.1904 76.1534 31.8321 76.0715 31.4021C75.9896 30.9517 75.9486 30.5013 75.9486 30.0508V21.3289L72.3554 26.2119C72.2735 26.3143 72.1507 26.4679 71.9869 26.6726C71.8231 26.8774 71.5877 27.0616 71.2805 27.2254C70.9734 27.3892 70.5435 27.4711 69.9907 27.4711C69.4379 27.4711 68.9977 27.3892 68.6701 27.2254C68.363 27.0616 68.1275 26.8876 67.9637 26.7033C67.8 26.4986 67.6771 26.3348 67.5952 26.2119L64.0327 21.3596V30.1123C64.0327 30.5627 63.9918 31.0029 63.9099 31.4328C63.828 31.8628 63.5925 32.2108 63.2035 32.477C62.8145 32.7432 62.1491 32.8763 61.2073 32.8763ZM98.6931 32.8763C97.7718 32.8763 97.1166 32.7432 96.7276 32.477C96.3386 32.1904 96.1031 31.8321 96.0212 31.4021C95.9393 30.9517 95.8984 30.5013 95.8984 30.0508V14.2039C95.8984 13.7535 95.9393 13.3133 96.0212 12.8833C96.1031 12.4534 96.3386 12.1053 96.7276 11.8391C97.1166 11.5525 97.782 11.4092 98.7238 11.4092C99.6656 11.4092 100.321 11.5525 100.689 11.8391C101.078 12.1053 101.314 12.4534 101.396 12.8833C101.478 13.3133 101.519 13.7637 101.519 14.2346V30.0815C101.519 30.532 101.478 30.9722 101.396 31.4021C101.314 31.8321 101.078 32.1904 100.689 32.477C100.3 32.7432 99.6349 32.8763 98.6931 32.8763ZM86.0708 32.8763C85.1495 32.8763 84.4943 32.7432 84.1053 32.477C83.7163 32.1904 83.4809 31.8321 83.399 31.4021C83.3171 30.9517 83.2761 30.5013 83.2761 30.0508V14.2039C83.2761 13.7535 83.3171 13.3133 83.399 12.8833C83.4809 12.4534 83.7163 12.1053 84.1053 11.8391C84.4943 11.5525 85.1597 11.4092 86.1015 11.4092C87.0434 11.4092 87.6985 11.5525 88.0671 11.8391C88.4561 12.1053 88.6915 12.4534 88.7734 12.8833C88.8553 13.3133 88.8963 13.7637 88.8963 14.2346V30.0815C88.8963 30.532 88.8553 30.9722 88.7734 31.4021C88.6915 31.8321 88.4561 32.1904 88.0671 32.477C87.678 32.7432 87.0127 32.8763 86.0708 32.8763ZM88.4049 24.5535V19.7626H96.3898V24.5535H88.4049ZM106.352 32.907C105.431 32.907 104.776 32.7739 104.387 32.5077C103.998 32.2211 103.762 31.8628 103.68 31.4328C103.598 30.9824 103.557 30.532 103.557 30.0815V14.2039C103.557 13.1392 103.762 12.4124 104.172 12.0234C104.602 11.6139 105.359 11.4092 106.444 11.4092H117.685C118.155 11.4092 118.596 11.4501 119.005 11.532C119.435 11.6139 119.783 11.8494 120.049 12.2384C120.336 12.6274 120.479 13.2928 120.479 14.2346C120.479 15.1559 120.336 15.8111 120.049 16.2001C119.783 16.5891 119.435 16.8246 119.005 16.9065C118.575 16.9884 118.125 17.0293 117.654 17.0293H109.178V19.7626H114.859C115.33 19.7626 115.75 19.8035 116.118 19.8855C116.487 19.9469 116.784 20.1414 117.009 20.469C117.234 20.7966 117.347 21.3698 117.347 22.1888C117.347 22.9668 117.234 23.5299 117.009 23.8779C116.784 24.2055 116.477 24.4 116.088 24.4614C115.698 24.5228 115.268 24.5535 114.798 24.5535H109.178V27.2868H117.685C118.155 27.2868 118.596 27.3278 119.005 27.4097C119.435 27.4916 119.783 27.727 120.049 28.116C120.336 28.5051 120.479 29.1704 120.479 30.1123C120.479 31.0336 120.336 31.6887 120.049 32.0778C119.783 32.4668 119.435 32.7022 119.005 32.7841C118.575 32.866 118.125 32.907 117.654 32.907H106.352ZM125.226 32.907C124.304 32.907 123.649 32.7739 123.26 32.5077C122.871 32.2211 122.635 31.8628 122.554 31.4328C122.472 30.9824 122.431 30.532 122.431 30.0815V14.2039C122.431 13.7535 122.472 13.3133 122.554 12.8833C122.635 12.4534 122.871 12.1053 123.26 11.8391C123.649 11.5525 124.314 11.4092 125.256 11.4092C126.198 11.4092 126.853 11.5525 127.222 11.8391C127.611 12.1053 127.846 12.4534 127.928 12.8833C128.01 13.3133 128.051 13.7637 128.051 14.2346V28.116H135.545C135.933 28.116 136.302 28.1467 136.65 28.2082C137.019 28.2696 137.315 28.4743 137.541 28.8224C137.786 29.15 137.909 29.713 137.909 30.5115C137.909 31.2895 137.786 31.8526 137.541 32.2006C137.295 32.5282 136.988 32.7227 136.619 32.7841C136.271 32.866 135.903 32.907 135.514 32.907H125.226ZM142.25 32.8763C141.328 32.8763 140.673 32.7432 140.284 32.477C139.895 32.1904 139.66 31.8321 139.578 31.4021C139.496 30.9517 139.455 30.5013 139.455 30.0508V14.2039C139.455 13.7535 139.496 13.3133 139.578 12.8833C139.66 12.4534 139.895 12.1053 140.284 11.8391C140.673 11.5525 141.338 11.4092 142.28 11.4092H148.392C149.17 11.4092 150.009 11.573 150.91 11.9006C151.811 12.2077 152.661 12.6888 153.459 13.344C154.278 13.9992 154.943 14.8181 155.455 15.8009C155.967 16.7836 156.223 17.9507 156.223 19.3019C156.223 20.6327 155.967 21.7895 155.455 22.7723C154.943 23.7551 154.278 24.574 153.459 25.2292C152.661 25.8639 151.811 26.345 150.91 26.6726C150.009 26.9797 149.16 27.1333 148.361 27.1333H145.075V30.0815C145.075 30.532 145.034 30.9722 144.952 31.4021C144.87 31.8321 144.635 32.1904 144.246 32.477C143.857 32.7432 143.192 32.8763 142.25 32.8763ZM145.075 21.5131H148.392C148.658 21.5131 148.965 21.4517 149.313 21.3289C149.661 21.1855 149.968 20.9501 150.235 20.6225C150.501 20.2949 150.634 19.8445 150.634 19.2712C150.634 18.8413 150.532 18.4625 150.327 18.1349C150.122 17.7869 149.845 17.5207 149.497 17.3364C149.17 17.1317 148.791 17.0293 148.361 17.0293H145.075V21.5131Z" fill="white"/>
</g>
<g clip-path="url(#clip1_6_29)">
<path d="M22.0736 44.1472C16.2005 44.1472 10.6636 41.8449 6.483 37.6642C2.30238 33.4836 0 27.9468 0 22.0736C0 19.0881 0.592884 16.1882 1.76235 13.4546C1.97369 12.9606 2.4688 12.648 3.0052 12.671C3.54204 12.6934 4.00912 13.0452 4.17873 13.5549L5.31629 16.9739L7.43596 18.3871L7.85278 14.1857C7.89666 13.7437 8.16422 13.3551 8.56155 13.1565L13.327 10.7745L14.4697 8.25916C14.6083 7.95418 14.8597 7.71482 15.1711 7.59151L17.3086 6.7453L13.477 3.86159C13.1053 3.58179 12.9125 3.12402 12.972 2.66263C13.0315 2.20124 13.3344 1.80736 13.765 1.63121C16.4099 0.548823 19.2054 0 22.0736 0C30.0272 0 37.4055 4.33505 41.329 11.3135C41.517 11.6479 41.5469 12.0486 41.4105 12.4072C41.274 12.7658 40.9854 13.0453 40.6227 13.1703L36.051 14.7447C35.8475 14.8148 35.6295 14.8331 35.4172 14.7976L31.1353 14.0837C30.7828 14.0249 30.4703 13.8228 30.272 13.5255L29.4901 12.3532L24.5703 14.9348L27.5461 15.6417C27.8712 15.719 28.1538 15.919 28.3347 16.2001L29.7927 18.465L31.7472 17.9761C32.1007 17.8876 32.4752 17.9525 32.7784 18.1546L34.9193 19.5816C35.2792 19.8215 35.4954 20.2254 35.4954 20.6579V23.0069L39.2833 27.1086C39.5039 27.3476 39.6265 27.6609 39.6265 27.9862V34.9764C39.6265 35.2691 39.5272 35.5531 39.3449 35.782C37.318 38.328 34.712 40.4336 31.8084 41.8714C28.7587 43.3815 25.4834 44.1472 22.0736 44.1472Z" fill="url(#paint0_linear_6_29)"/>
<path d="M41.3288 11.3131C41.0225 10.7688 40.371 10.5211 39.7804 10.7245L35.519 12.1921L32.1132 11.6242L30.9961 9.94924C30.6289 9.39861 29.9052 9.21408 29.3191 9.52156L20.3094 14.2493C19.8318 14.4999 19.5599 15.0207 19.6271 15.5559C19.6944 16.0911 20.0867 16.5283 20.6115 16.653L26.4415 18.0381L28.1194 20.6448C28.4194 21.1108 28.9831 21.3341 29.5209 21.1994L31.8199 20.6242L32.9086 21.35V23.5126C32.9086 23.8379 33.0312 24.1512 33.2518 24.3901L37.0397 28.4919V34.9763C37.0397 35.5262 37.3873 36.0159 37.9063 36.1973C38.0462 36.2462 38.1902 36.2698 38.3328 36.2698C38.7193 36.2698 39.0946 36.0962 39.3448 35.782C40.8678 33.8694 42.0544 31.74 42.8716 29.453C43.7181 27.0844 44.1472 24.6016 44.1472 22.0736C44.1472 18.3112 43.1726 14.5903 41.3288 11.3131ZM21.61 24.2836L17.5709 23.4755L14.1615 19.7256C13.9124 19.4516 13.5578 19.2985 13.1874 19.3024L9.94036 19.3454L10.3565 15.1512L14.8934 12.8835C15.1585 12.751 15.37 12.5314 15.4927 12.2615L16.6089 9.80447L20.4053 8.30148C20.8403 8.12929 21.1484 7.7355 21.211 7.27186C21.2736 6.80823 21.0808 6.34684 20.707 6.06558L15.0326 1.79485C14.6683 1.52065 14.1865 1.45848 13.7645 1.63136C8.41029 3.82433 4.03558 8.13394 1.76208 13.4552C1.63792 13.7457 1.62447 14.0717 1.72423 14.3716L3.00208 18.2121C3.09297 18.4853 3.2724 18.7202 3.51193 18.8799L7.21702 21.35V24.1249C7.21702 24.4617 7.34835 24.7852 7.58322 25.0266L10.7859 28.3198V31.9748C10.7859 32.2774 10.8919 32.5704 11.0857 32.8028L14.6537 37.0847C14.9043 37.3855 15.271 37.5501 15.6475 37.5501C15.7948 37.5501 15.9436 37.525 16.0875 37.4729C16.5995 37.2875 16.9406 36.8013 16.9406 36.2568V33.3355L19.2781 31.5825C19.6038 31.3382 19.7955 30.9549 19.7955 30.5478V28.9425L22.2708 26.4663C22.608 26.129 22.7322 25.6336 22.594 25.1771C22.4558 24.7205 22.0777 24.3773 21.61 24.2836Z" fill="url(#paint1_linear_6_29)"/>
</g>
<defs>
<linearGradient id="paint0_linear_6_29" x1="20.7475" y1="44.1472" x2="20.7475" y2="0" gradientUnits="userSpaceOnUse">
<stop stop-color="#5558FF"/>
<stop offset="1" stop-color="#00C0FF"/>
</linearGradient>
<linearGradient id="paint1_linear_6_29" x1="22.9027" y1="37.5502" x2="22.9027" y2="1.53479" gradientUnits="userSpaceOnUse">
<stop stop-color="#ADDCFF"/>
<stop offset="0.5028" stop-color="#EAF6FF"/>
<stop offset="1" stop-color="#EAF6FF"/>
</linearGradient>
<clipPath id="clip0_6_29">
<rect width="98.3716" height="22.0736" fill="white" transform="translate(58.0632 11.0368)"/>
</clipPath>
<clipPath id="clip1_6_29">
<rect width="44.1472" height="44.1472" fill="white"/>
</clipPath>
</defs>
</svg>
