<svg width="168" height="45" viewBox="0 0 168 45" fill="none" xmlns="http://www.w3.org/2000/svg">
<path d="M59.313 37.36C58.353 37.36 57.6596 37.2133 57.233 36.92C56.8063 36.6267 56.5396 36.24 56.433 35.76C56.353 35.28 56.313 34.7867 56.313 34.28V12.4C56.313 11.8933 56.353 11.4133 56.433 10.96C56.5396 10.5067 56.8063 10.1333 57.233 9.84C57.6596 9.54666 58.3663 9.4 59.353 9.4H67.673C68.7663 9.4 69.8863 9.6 71.033 10C72.1796 10.4 73.233 11.0133 74.193 11.84C75.153 12.6667 75.9263 13.6933 76.513 14.92C77.0996 16.1467 77.393 17.6 77.393 19.28C77.393 20.4 77.2196 21.48 76.873 22.52C76.553 23.56 76.0596 24.52 75.393 25.4C74.7263 26.28 73.8996 27.04 72.913 27.68C71.9263 28.2933 70.793 28.7333 69.513 29H62.393V34.32C62.393 34.8267 62.3396 35.32 62.233 35.8C62.1263 36.2533 61.8596 36.6267 61.433 36.92C61.0063 37.2133 60.2996 37.36 59.313 37.36ZM76.193 36.56C75.2063 37.28 74.4196 37.56 73.833 37.4C73.2463 37.24 72.633 36.72 71.993 35.84L64.953 25.76L71.793 24.88L76.953 32.28C77.4063 32.92 77.6863 33.4667 77.793 33.92C77.9263 34.3733 77.8596 34.8 77.593 35.2C77.353 35.6 76.8863 36.0533 76.193 36.56ZM62.393 23H67.953C68.3263 23 68.713 22.9333 69.113 22.8C69.513 22.64 69.873 22.4133 70.193 22.12C70.513 21.8267 70.7796 21.44 70.993 20.96C71.2063 20.48 71.313 19.9067 71.313 19.24C71.313 18.4667 71.153 17.8 70.833 17.24C70.5396 16.68 70.113 16.2533 69.553 15.96C68.993 15.64 68.3396 15.48 67.593 15.48H62.393V23ZM106.228 33.12C106.548 33.7867 106.721 34.36 106.748 34.84C106.774 35.2933 106.628 35.7067 106.308 36.08C106.014 36.4267 105.521 36.7733 104.828 37.12C103.761 37.6267 102.934 37.7733 102.348 37.56C101.761 37.3733 101.214 36.7467 100.708 35.68L92.8677 19.28L85.0677 35.68C84.5343 36.72 83.9743 37.3333 83.3877 37.52C82.8277 37.7333 82.0143 37.5867 80.9477 37.08C80.2543 36.76 79.7477 36.4267 79.4277 36.08C79.1343 35.7067 79.001 35.28 79.0277 34.8C79.0543 34.2933 79.241 33.7067 79.5877 33.04L90.1077 11.16C90.3743 10.6267 90.761 10.2 91.2677 9.88C91.801 9.56 92.3477 9.4 92.9077 9.4C93.3077 9.4 93.681 9.48 94.0277 9.64C94.3743 9.77333 94.681 9.97333 94.9477 10.24C95.241 10.5067 95.481 10.8267 95.6677 11.2L106.228 33.12ZM86.1477 30.84L88.6277 25.68H97.1477L99.6277 30.84H86.1477ZM112.547 37.36C111.587 37.36 110.894 37.2133 110.467 36.92C110.067 36.6267 109.814 36.2533 109.707 35.8C109.6 35.32 109.547 34.8133 109.547 34.28V12.4C109.547 11.8933 109.6 11.4267 109.707 11C109.814 10.5467 110.08 10.1733 110.507 9.88C110.934 9.58667 111.64 9.44 112.627 9.44C113.294 9.44 113.8 9.48 114.147 9.56C114.494 9.64 114.747 9.76 114.907 9.92C115.067 10.0533 115.24 10.2133 115.427 10.4L124.427 22.56H123.827L132.867 10.4C133.08 10.1333 133.294 9.93333 133.507 9.8C133.72 9.66666 133.987 9.57333 134.307 9.52C134.654 9.46667 135.134 9.44 135.747 9.44C136.707 9.44 137.4 9.58667 137.827 9.88C138.254 10.1733 138.52 10.56 138.627 11.04C138.734 11.4933 138.787 11.9733 138.787 12.48V34.36C138.787 34.8667 138.734 35.3467 138.627 35.8C138.52 36.2533 138.254 36.6267 137.827 36.92C137.4 37.2133 136.694 37.36 135.707 37.36C134.747 37.36 134.054 37.2133 133.627 36.92C133.2 36.6267 132.934 36.24 132.827 35.76C132.72 35.28 132.667 34.7867 132.667 34.28V20L126.707 28.44C126.6 28.5733 126.454 28.76 126.267 29C126.08 29.2133 125.814 29.4 125.467 29.56C125.147 29.72 124.707 29.8 124.147 29.8C123.56 29.8 123.094 29.72 122.747 29.56C122.427 29.4 122.174 29.2133 121.987 29C121.8 28.7867 121.64 28.6 121.507 28.44L115.587 20.04V34.36C115.587 34.8667 115.534 35.3467 115.427 35.8C115.32 36.2533 115.054 36.6267 114.627 36.92C114.227 37.2133 113.534 37.36 112.547 37.36ZM145.805 37.36C144.845 37.36 144.152 37.2133 143.725 36.92C143.298 36.6 143.032 36.2 142.925 35.72C142.845 35.2133 142.805 34.6933 142.805 34.16V12.48C142.805 11.9467 142.845 11.4533 142.925 11C143.032 10.52 143.298 10.1333 143.725 9.84C144.152 9.52 144.858 9.36 145.845 9.36H155.805C157.378 9.36 158.778 9.73333 160.005 10.48C161.232 11.2267 162.205 12.2267 162.925 13.48C163.645 14.7333 163.992 16.0933 163.965 17.56C163.992 18.1467 163.938 18.72 163.805 19.28C163.672 19.84 163.472 20.3867 163.205 20.92C162.965 21.4267 162.658 21.8933 162.285 22.32C162.845 22.8533 163.312 23.4667 163.685 24.16C164.058 24.8267 164.338 25.5333 164.525 26.28C164.738 27.0267 164.845 27.7867 164.845 28.56C164.818 29.7867 164.578 30.9467 164.125 32.04C163.698 33.1067 163.085 34.04 162.285 34.84C161.485 35.6133 160.565 36.2267 159.525 36.68C158.485 37.1333 157.378 37.36 156.205 37.36H145.805ZM148.885 31.32H155.805C156.258 31.32 156.712 31.24 157.165 31.08C157.645 30.8933 158.032 30.5733 158.325 30.12C158.645 29.64 158.805 28.9733 158.805 28.12C158.805 27.56 158.738 27.0933 158.605 26.72C158.472 26.3467 158.285 26.0667 158.045 25.88C157.805 25.6667 157.538 25.52 157.245 25.44C156.952 25.36 156.645 25.3067 156.325 25.28C156.005 25.2533 155.698 25.24 155.405 25.24H154.245C153.338 25.24 152.698 25.0533 152.325 24.68C151.952 24.28 151.765 23.6 151.765 22.64C151.765 21.7067 151.965 21.0533 152.365 20.68C152.792 20.3067 153.458 20.12 154.365 20.12H155.525C155.792 20.12 156.072 20.1067 156.365 20.08C156.658 20.0533 156.912 19.9733 157.125 19.84C157.365 19.7067 157.552 19.4933 157.685 19.2C157.845 18.88 157.925 18.4533 157.925 17.92C157.925 17.0133 157.698 16.3733 157.245 16C156.792 15.6 155.992 15.4 154.845 15.4H148.885V31.32Z" fill="white"/>
<g clip-path="url(#clip0_290_253)">
<path d="M21.2593 44.4449C15.6029 44.4449 10.2703 42.2274 6.24385 38.201C2.21745 34.1746 0 28.842 0 23.1855C0 20.3101 0.571012 17.5173 1.69734 14.8844C1.90088 14.4087 2.37772 14.1076 2.89434 14.1298C3.41138 14.1513 3.86123 14.4901 4.02458 14.9811L5.12018 18.274L7.16166 19.635L7.56309 15.5886C7.60536 15.1629 7.86305 14.7886 8.24572 14.5974L12.8354 12.3033L13.9359 9.88069C14.0694 9.58696 14.3115 9.35643 14.6115 9.23768L16.6701 8.42268L12.9798 5.64535C12.6218 5.37587 12.4361 4.93499 12.4935 4.49062C12.5508 4.04625 12.8425 3.6669 13.2572 3.49724C15.8046 2.45479 18.497 1.92621 21.2593 1.92621C28.9195 1.92621 36.0256 6.10134 39.8044 12.8224C39.9855 13.1444 40.0142 13.5303 39.8828 13.8757C39.7515 14.2211 39.4735 14.4903 39.1242 14.6106L34.7211 16.127C34.5251 16.1945 34.3151 16.2122 34.1107 16.1779L29.9867 15.4903C29.6472 15.4337 29.3463 15.2391 29.1553 14.9528L28.4022 13.8237L23.6639 16.3101L26.5299 16.9909C26.8431 17.0653 27.1152 17.258 27.2894 17.5287L28.6936 19.7101L30.5761 19.2392C30.9166 19.1539 31.2772 19.2164 31.5692 19.4111L33.6312 20.7855C33.9778 21.0165 34.186 21.4055 34.186 21.822V24.0844L37.8341 28.0348C38.0467 28.265 38.1647 28.5667 38.1647 28.88V35.6124C38.1647 35.8942 38.0691 36.1678 37.8935 36.3883C35.9414 38.8403 33.4315 40.8682 30.635 42.253C27.6978 43.7074 24.5433 44.4449 21.2593 44.4449Z" fill="url(#paint0_linear_290_253)"/>
<path d="M39.8042 12.822C39.5092 12.2978 38.8817 12.0592 38.313 12.2551L34.2088 13.6686L30.9286 13.1217L29.8527 11.5084C29.4991 10.9781 28.802 10.8004 28.2375 11.0965L19.5602 15.6499C19.1003 15.8913 18.8383 16.3928 18.9031 16.9082C18.9679 17.4237 19.3457 17.8448 19.8512 17.9649L25.4661 19.2989L27.0821 21.8094C27.3711 22.2583 27.9139 22.4733 28.4319 22.3436L30.6461 21.7897L31.6947 22.4886V24.5715C31.6947 24.8847 31.8127 25.1865 32.0252 25.4166L35.6733 29.367V35.6123C35.6733 36.1419 36.0081 36.6135 36.508 36.7882C36.6427 36.8353 36.7814 36.858 36.9187 36.858C37.2909 36.858 37.6524 36.6909 37.8934 36.3883C39.3602 34.5462 40.503 32.4954 41.2901 30.2927C42.1054 28.0115 42.5187 25.6203 42.5187 23.1855C42.5187 19.5619 41.58 15.9783 39.8042 12.822ZM20.8128 25.3141L16.9228 24.5358L13.6391 20.9242C13.3992 20.6602 13.0577 20.5128 12.701 20.5166L9.57367 20.5579L9.97444 16.5185L14.344 14.3344C14.5993 14.2068 14.8031 13.9954 14.9211 13.7354L15.9962 11.369L19.6526 9.92146C20.0716 9.75562 20.3683 9.37636 20.4286 8.92983C20.4888 8.4833 20.3032 8.03893 19.9432 7.76804L14.478 3.65485C14.1272 3.39077 13.6632 3.3309 13.2568 3.4974C8.10005 5.60947 3.88672 9.7601 1.69709 14.885C1.5775 15.1649 1.56455 15.4789 1.66063 15.7677L2.89135 19.4665C2.97888 19.7296 3.15169 19.9559 3.38239 20.1097L6.9508 22.4886V25.1612C6.9508 25.4855 7.07728 25.7971 7.30349 26.0296L10.388 29.2014V32.7215C10.388 33.0129 10.4901 33.2951 10.6767 33.5189L14.1131 37.6429C14.3545 37.9325 14.7076 38.0912 15.0703 38.0912C15.2121 38.0912 15.3555 38.0669 15.4941 38.0168C15.9872 37.8382 16.3157 37.3699 16.3157 36.8455V34.032L18.567 32.3437C18.8806 32.1084 19.0652 31.7392 19.0652 31.3471V29.801L21.4493 27.4162C21.774 27.0914 21.8936 26.6142 21.7605 26.1746C21.6275 25.7348 21.2632 25.4042 20.8128 25.3141Z" fill="url(#paint1_linear_290_253)"/>
</g>
<defs>
<linearGradient id="paint0_linear_290_253" x1="19.9821" y1="44.4449" x2="19.9821" y2="1.92621" gradientUnits="userSpaceOnUse">
<stop stop-color="#5558FF"/>
<stop offset="1" stop-color="#00C0FF"/>
</linearGradient>
<linearGradient id="paint1_linear_290_253" x1="22.0578" y1="38.0912" x2="22.0578" y2="3.40439" gradientUnits="userSpaceOnUse">
<stop stop-color="#ADDCFF"/>
<stop offset="0.5028" stop-color="#EAF6FF"/>
<stop offset="1" stop-color="#EAF6FF"/>
</linearGradient>
<clipPath id="clip0_290_253">
<rect width="42.5187" height="42.5187" fill="white" transform="translate(0 1.92621)"/>
</clipPath>
</defs>
</svg>
